<mxfile host="app.diagrams.net" agent="Mozilla/5.0 (Windows NT 10.0; Win64; x64; rv:136.0) Gecko/20100101 Firefox/136.0" version="26.1.3">
  <diagram name="Side-1" id="iriaWdWmJW3zvOeco5Ye">
    <mxGraphModel dx="2739" dy="2361" grid="1" gridSize="10" guides="1" tooltips="1" connect="1" arrows="1" fold="1" page="1" pageScale="1" pageWidth="827" pageHeight="1169" math="0" shadow="0">
      <root>
        <mxCell id="0" />
        <mxCell id="1" parent="0" />
        <mxCell id="aqUu65AV-6JLtwwe9ziM-27" value="" style="endArrow=classic;startArrow=classic;html=1;rounded=0;exitX=1;exitY=0.5;exitDx=0;exitDy=0;entryX=0;entryY=0.333;entryDx=0;entryDy=0;entryPerimeter=0;edgeStyle=orthogonalEdgeStyle;" parent="1" source="qUH4pPLVqTFTwaiTXcvp-44" target="qUH4pPLVqTFTwaiTXcvp-60" edge="1">
          <mxGeometry width="50" height="50" relative="1" as="geometry">
            <mxPoint x="379.03999999999996" y="203.20000000000005" as="sourcePoint" />
            <mxPoint x="508" y="203" as="targetPoint" />
          </mxGeometry>
        </mxCell>
        <mxCell id="aqUu65AV-6JLtwwe9ziM-28" value="many" style="edgeLabel;html=1;align=center;verticalAlign=middle;resizable=0;points=[];" parent="aqUu65AV-6JLtwwe9ziM-27" vertex="1" connectable="0">
          <mxGeometry x="-0.5353" y="1" relative="1" as="geometry">
            <mxPoint x="-17" as="offset" />
          </mxGeometry>
        </mxCell>
        <mxCell id="aqUu65AV-6JLtwwe9ziM-29" value="one" style="edgeLabel;html=1;align=center;verticalAlign=middle;resizable=0;points=[];" parent="aqUu65AV-6JLtwwe9ziM-27" vertex="1" connectable="0">
          <mxGeometry x="0.6743" relative="1" as="geometry">
            <mxPoint y="-3" as="offset" />
          </mxGeometry>
        </mxCell>
        <mxCell id="aqUu65AV-6JLtwwe9ziM-33" value="" style="endArrow=classic;startArrow=classic;html=1;rounded=0;edgeStyle=orthogonalEdgeStyle;" parent="1" source="9F0vchl4Z2Q72RuIH1m0-13" target="qUH4pPLVqTFTwaiTXcvp-131" edge="1">
          <mxGeometry width="50" height="50" relative="1" as="geometry">
            <mxPoint x="80" y="525.0000000000002" as="sourcePoint" />
            <mxPoint x="473.87" y="977" as="targetPoint" />
          </mxGeometry>
        </mxCell>
        <mxCell id="aqUu65AV-6JLtwwe9ziM-34" value="many" style="edgeLabel;html=1;align=center;verticalAlign=middle;resizable=0;points=[];" parent="aqUu65AV-6JLtwwe9ziM-33" vertex="1" connectable="0">
          <mxGeometry x="-0.5353" y="1" relative="1" as="geometry">
            <mxPoint x="19" as="offset" />
          </mxGeometry>
        </mxCell>
        <mxCell id="aqUu65AV-6JLtwwe9ziM-35" value="one" style="edgeLabel;html=1;align=center;verticalAlign=middle;resizable=0;points=[];" parent="aqUu65AV-6JLtwwe9ziM-33" vertex="1" connectable="0">
          <mxGeometry x="0.6743" relative="1" as="geometry">
            <mxPoint y="-7" as="offset" />
          </mxGeometry>
        </mxCell>
        <mxCell id="aqUu65AV-6JLtwwe9ziM-36" value="" style="endArrow=classic;startArrow=classic;html=1;rounded=0;entryX=1;entryY=0.5;entryDx=0;entryDy=0;edgeStyle=orthogonalEdgeStyle;" parent="1" source="9F0vchl4Z2Q72RuIH1m0-10" target="qUH4pPLVqTFTwaiTXcvp-241" edge="1">
          <mxGeometry width="50" height="50" relative="1" as="geometry">
            <mxPoint x="80" y="555.0000000000002" as="sourcePoint" />
            <mxPoint x="344" y="487" as="targetPoint" />
          </mxGeometry>
        </mxCell>
        <mxCell id="aqUu65AV-6JLtwwe9ziM-37" value="many" style="edgeLabel;html=1;align=center;verticalAlign=middle;resizable=0;points=[];" parent="aqUu65AV-6JLtwwe9ziM-36" vertex="1" connectable="0">
          <mxGeometry x="-0.5353" y="1" relative="1" as="geometry">
            <mxPoint x="28" y="-6" as="offset" />
          </mxGeometry>
        </mxCell>
        <mxCell id="aqUu65AV-6JLtwwe9ziM-38" value="one" style="edgeLabel;html=1;align=center;verticalAlign=middle;resizable=0;points=[];" parent="aqUu65AV-6JLtwwe9ziM-36" vertex="1" connectable="0">
          <mxGeometry x="0.6743" relative="1" as="geometry">
            <mxPoint x="-10" y="-6" as="offset" />
          </mxGeometry>
        </mxCell>
        <mxCell id="aqUu65AV-6JLtwwe9ziM-39" value="" style="endArrow=classic;startArrow=classic;html=1;rounded=0;entryX=0;entryY=0.5;entryDx=0;entryDy=0;edgeStyle=orthogonalEdgeStyle;" parent="1" source="qUH4pPLVqTFTwaiTXcvp-241" target="qUH4pPLVqTFTwaiTXcvp-131" edge="1">
          <mxGeometry width="50" height="50" relative="1" as="geometry">
            <mxPoint x="-320" y="400" as="sourcePoint" />
            <mxPoint x="280" y="630" as="targetPoint" />
            <Array as="points">
              <mxPoint x="-470" y="535" />
              <mxPoint x="-470" y="250" />
              <mxPoint x="-380" y="250" />
              <mxPoint x="-380" y="255" />
            </Array>
          </mxGeometry>
        </mxCell>
        <mxCell id="aqUu65AV-6JLtwwe9ziM-40" value="many" style="edgeLabel;html=1;align=center;verticalAlign=middle;resizable=0;points=[];" parent="aqUu65AV-6JLtwwe9ziM-39" vertex="1" connectable="0">
          <mxGeometry x="-0.5353" y="1" relative="1" as="geometry">
            <mxPoint x="31" y="-1" as="offset" />
          </mxGeometry>
        </mxCell>
        <mxCell id="aqUu65AV-6JLtwwe9ziM-41" value="one" style="edgeLabel;html=1;align=center;verticalAlign=middle;resizable=0;points=[];" parent="aqUu65AV-6JLtwwe9ziM-39" vertex="1" connectable="0">
          <mxGeometry x="0.6743" relative="1" as="geometry">
            <mxPoint x="16" as="offset" />
          </mxGeometry>
        </mxCell>
        <mxCell id="qUH4pPLVqTFTwaiTXcvp-33" value="identification" style="shape=table;startSize=30;container=1;collapsible=0;childLayout=tableLayout;fixedRows=1;rowLines=0;fontStyle=0;strokeColor=default;fontSize=16;" parent="1" vertex="1">
          <mxGeometry x="-120" y="-180" width="640" height="210" as="geometry" />
        </mxCell>
        <mxCell id="qUH4pPLVqTFTwaiTXcvp-34" value="" style="shape=tableRow;horizontal=0;startSize=0;swimlaneHead=0;swimlaneBody=0;top=0;left=0;bottom=0;right=0;collapsible=0;dropTarget=0;fillColor=none;points=[[0,0.5],[1,0.5]];portConstraint=eastwest;strokeColor=inherit;fontSize=16;" parent="qUH4pPLVqTFTwaiTXcvp-33" vertex="1">
          <mxGeometry y="30" width="640" height="30" as="geometry" />
        </mxCell>
        <mxCell id="qUH4pPLVqTFTwaiTXcvp-35" value="PK" style="shape=partialRectangle;html=1;whiteSpace=wrap;connectable=0;fillColor=none;top=0;left=0;bottom=0;right=0;overflow=hidden;pointerEvents=1;strokeColor=inherit;fontSize=16;" parent="qUH4pPLVqTFTwaiTXcvp-34" vertex="1">
          <mxGeometry width="141" height="30" as="geometry">
            <mxRectangle width="141" height="30" as="alternateBounds" />
          </mxGeometry>
        </mxCell>
        <mxCell id="qUH4pPLVqTFTwaiTXcvp-36" value="&lt;span&gt;&lt;span class=&quot;objectBox objectBox-string&quot;&gt;identificationID&lt;/span&gt;&lt;/span&gt;" style="shape=partialRectangle;html=1;whiteSpace=wrap;connectable=0;fillColor=none;top=0;left=0;bottom=0;right=0;align=left;spacingLeft=6;overflow=hidden;strokeColor=inherit;fontSize=16;" parent="qUH4pPLVqTFTwaiTXcvp-34" vertex="1">
          <mxGeometry x="141" width="499" height="30" as="geometry">
            <mxRectangle width="499" height="30" as="alternateBounds" />
          </mxGeometry>
        </mxCell>
        <mxCell id="qUH4pPLVqTFTwaiTXcvp-37" value="" style="shape=tableRow;horizontal=0;startSize=0;swimlaneHead=0;swimlaneBody=0;top=0;left=0;bottom=0;right=0;collapsible=0;dropTarget=0;fillColor=none;points=[[0,0.5],[1,0.5]];portConstraint=eastwest;strokeColor=inherit;fontSize=16;" parent="qUH4pPLVqTFTwaiTXcvp-33" vertex="1">
          <mxGeometry y="60" width="640" height="30" as="geometry" />
        </mxCell>
        <mxCell id="qUH4pPLVqTFTwaiTXcvp-38" value="FK" style="shape=partialRectangle;html=1;whiteSpace=wrap;connectable=0;fillColor=none;top=0;left=0;bottom=0;right=0;overflow=hidden;strokeColor=inherit;fontSize=16;" parent="qUH4pPLVqTFTwaiTXcvp-37" vertex="1">
          <mxGeometry width="141" height="30" as="geometry">
            <mxRectangle width="141" height="30" as="alternateBounds" />
          </mxGeometry>
        </mxCell>
        <mxCell id="qUH4pPLVqTFTwaiTXcvp-39" value="&lt;span&gt;&lt;span class=&quot;objectBox objectBox-string&quot;&gt;identificationBasedOnGeneticSequenceID&lt;/span&gt;&lt;/span&gt;" style="shape=partialRectangle;html=1;whiteSpace=wrap;connectable=0;fillColor=none;top=0;left=0;bottom=0;right=0;align=left;spacingLeft=6;overflow=hidden;strokeColor=inherit;fontSize=16;" parent="qUH4pPLVqTFTwaiTXcvp-37" vertex="1">
          <mxGeometry x="141" width="499" height="30" as="geometry">
            <mxRectangle width="499" height="30" as="alternateBounds" />
          </mxGeometry>
        </mxCell>
        <mxCell id="WmTq8ZV5PMSnHw8i3acf-23" style="shape=tableRow;horizontal=0;startSize=0;swimlaneHead=0;swimlaneBody=0;top=0;left=0;bottom=0;right=0;collapsible=0;dropTarget=0;fillColor=none;points=[[0,0.5],[1,0.5]];portConstraint=eastwest;strokeColor=inherit;fontSize=16;" parent="qUH4pPLVqTFTwaiTXcvp-33" vertex="1">
          <mxGeometry y="90" width="640" height="30" as="geometry" />
        </mxCell>
        <mxCell id="WmTq8ZV5PMSnHw8i3acf-24" value="FK" style="shape=partialRectangle;html=1;whiteSpace=wrap;connectable=0;fillColor=none;top=0;left=0;bottom=0;right=0;overflow=hidden;strokeColor=inherit;fontSize=16;" parent="WmTq8ZV5PMSnHw8i3acf-23" vertex="1">
          <mxGeometry width="141" height="30" as="geometry">
            <mxRectangle width="141" height="30" as="alternateBounds" />
          </mxGeometry>
        </mxCell>
        <mxCell id="WmTq8ZV5PMSnHw8i3acf-25" value="identificationBasedOnGeneticAnalysisID" style="shape=partialRectangle;html=1;whiteSpace=wrap;connectable=0;fillColor=none;top=0;left=0;bottom=0;right=0;align=left;spacingLeft=6;overflow=hidden;strokeColor=inherit;fontSize=16;" parent="WmTq8ZV5PMSnHw8i3acf-23" vertex="1">
          <mxGeometry x="141" width="499" height="30" as="geometry">
            <mxRectangle width="499" height="30" as="alternateBounds" />
          </mxGeometry>
        </mxCell>
        <mxCell id="qUH4pPLVqTFTwaiTXcvp-115" style="shape=tableRow;horizontal=0;startSize=0;swimlaneHead=0;swimlaneBody=0;top=0;left=0;bottom=0;right=0;collapsible=0;dropTarget=0;fillColor=none;points=[[0,0.5],[1,0.5]];portConstraint=eastwest;strokeColor=inherit;fontSize=16;" parent="qUH4pPLVqTFTwaiTXcvp-33" vertex="1">
          <mxGeometry y="120" width="640" height="30" as="geometry" />
        </mxCell>
        <mxCell id="qUH4pPLVqTFTwaiTXcvp-116" style="shape=partialRectangle;html=1;whiteSpace=wrap;connectable=0;fillColor=none;top=0;left=0;bottom=0;right=0;overflow=hidden;strokeColor=inherit;fontSize=16;" parent="qUH4pPLVqTFTwaiTXcvp-115" vertex="1">
          <mxGeometry width="141" height="30" as="geometry">
            <mxRectangle width="141" height="30" as="alternateBounds" />
          </mxGeometry>
        </mxCell>
        <mxCell id="qUH4pPLVqTFTwaiTXcvp-117" value="..." style="shape=partialRectangle;html=1;whiteSpace=wrap;connectable=0;fillColor=none;top=0;left=0;bottom=0;right=0;align=left;spacingLeft=6;overflow=hidden;strokeColor=inherit;fontSize=16;" parent="qUH4pPLVqTFTwaiTXcvp-115" vertex="1">
          <mxGeometry x="141" width="499" height="30" as="geometry">
            <mxRectangle width="499" height="30" as="alternateBounds" />
          </mxGeometry>
        </mxCell>
        <mxCell id="qUH4pPLVqTFTwaiTXcvp-118" style="shape=tableRow;horizontal=0;startSize=0;swimlaneHead=0;swimlaneBody=0;top=0;left=0;bottom=0;right=0;collapsible=0;dropTarget=0;fillColor=none;points=[[0,0.5],[1,0.5]];portConstraint=eastwest;strokeColor=inherit;fontSize=16;" parent="qUH4pPLVqTFTwaiTXcvp-33" vertex="1">
          <mxGeometry y="150" width="640" height="30" as="geometry" />
        </mxCell>
        <mxCell id="qUH4pPLVqTFTwaiTXcvp-119" style="shape=partialRectangle;html=1;whiteSpace=wrap;connectable=0;fillColor=none;top=0;left=0;bottom=0;right=0;overflow=hidden;strokeColor=inherit;fontSize=16;" parent="qUH4pPLVqTFTwaiTXcvp-118" vertex="1">
          <mxGeometry width="141" height="30" as="geometry">
            <mxRectangle width="141" height="30" as="alternateBounds" />
          </mxGeometry>
        </mxCell>
        <mxCell id="qUH4pPLVqTFTwaiTXcvp-120" value="&lt;span style=&quot;font-size:12.0pt;font-family:&amp;quot;Aptos&amp;quot;,sans-serif;&lt;br/&gt;mso-fareast-font-family:Aptos;mso-fareast-theme-font:minor-latin;mso-bidi-font-family:&lt;br/&gt;Aptos;mso-font-kerning:0pt;mso-ligatures:none;mso-ansi-language:DA;mso-fareast-language:&lt;br/&gt;DA;mso-bidi-language:AR-SA&quot;&gt;identificationReferences&lt;/span&gt; (otu_db)" style="shape=partialRectangle;html=1;whiteSpace=wrap;connectable=0;fillColor=none;top=0;left=0;bottom=0;right=0;align=left;spacingLeft=6;overflow=hidden;strokeColor=inherit;fontSize=16;" parent="qUH4pPLVqTFTwaiTXcvp-118" vertex="1">
          <mxGeometry x="141" width="499" height="30" as="geometry">
            <mxRectangle width="499" height="30" as="alternateBounds" />
          </mxGeometry>
        </mxCell>
        <mxCell id="Qp3W3nuj6A5tC4hSGvUT-1" style="shape=tableRow;horizontal=0;startSize=0;swimlaneHead=0;swimlaneBody=0;top=0;left=0;bottom=0;right=0;collapsible=0;dropTarget=0;fillColor=none;points=[[0,0.5],[1,0.5]];portConstraint=eastwest;strokeColor=inherit;fontSize=16;" vertex="1" parent="qUH4pPLVqTFTwaiTXcvp-33">
          <mxGeometry y="180" width="640" height="30" as="geometry" />
        </mxCell>
        <mxCell id="Qp3W3nuj6A5tC4hSGvUT-2" style="shape=partialRectangle;html=1;whiteSpace=wrap;connectable=0;fillColor=none;top=0;left=0;bottom=0;right=0;overflow=hidden;strokeColor=inherit;fontSize=16;" vertex="1" parent="Qp3W3nuj6A5tC4hSGvUT-1">
          <mxGeometry width="141" height="30" as="geometry">
            <mxRectangle width="141" height="30" as="alternateBounds" />
          </mxGeometry>
        </mxCell>
        <mxCell id="Qp3W3nuj6A5tC4hSGvUT-3" value="taxonAssignmentMethod (otu_class_appr, otu_seq_comp_appr)" style="shape=partialRectangle;html=1;whiteSpace=wrap;connectable=0;fillColor=none;top=0;left=0;bottom=0;right=0;align=left;spacingLeft=6;overflow=hidden;strokeColor=inherit;fontSize=16;" vertex="1" parent="Qp3W3nuj6A5tC4hSGvUT-1">
          <mxGeometry x="141" width="499" height="30" as="geometry">
            <mxRectangle width="499" height="30" as="alternateBounds" />
          </mxGeometry>
        </mxCell>
        <mxCell id="qUH4pPLVqTFTwaiTXcvp-43" value="geneticAnalysis" style="shape=table;startSize=30;container=1;collapsible=0;childLayout=tableLayout;fixedRows=1;rowLines=0;fontStyle=0;strokeColor=default;fontSize=16;" parent="1" vertex="1">
          <mxGeometry x="80" y="120" width="350" height="240" as="geometry" />
        </mxCell>
        <mxCell id="qUH4pPLVqTFTwaiTXcvp-44" value="" style="shape=tableRow;horizontal=0;startSize=0;swimlaneHead=0;swimlaneBody=0;top=0;left=0;bottom=0;right=0;collapsible=0;dropTarget=0;fillColor=none;points=[[0,0.5],[1,0.5]];portConstraint=eastwest;strokeColor=inherit;fontSize=16;" parent="qUH4pPLVqTFTwaiTXcvp-43" vertex="1">
          <mxGeometry y="30" width="350" height="30" as="geometry" />
        </mxCell>
        <mxCell id="qUH4pPLVqTFTwaiTXcvp-45" value="PK" style="shape=partialRectangle;html=1;whiteSpace=wrap;connectable=0;fillColor=none;top=0;left=0;bottom=0;right=0;overflow=hidden;pointerEvents=1;strokeColor=inherit;fontSize=16;" parent="qUH4pPLVqTFTwaiTXcvp-44" vertex="1">
          <mxGeometry width="77" height="30" as="geometry">
            <mxRectangle width="77" height="30" as="alternateBounds" />
          </mxGeometry>
        </mxCell>
        <mxCell id="qUH4pPLVqTFTwaiTXcvp-46" value="geneticAnalysisID" style="shape=partialRectangle;html=1;whiteSpace=wrap;connectable=0;fillColor=none;top=0;left=0;bottom=0;right=0;align=left;spacingLeft=6;overflow=hidden;strokeColor=inherit;fontSize=16;" parent="qUH4pPLVqTFTwaiTXcvp-44" vertex="1">
          <mxGeometry x="77" width="273" height="30" as="geometry">
            <mxRectangle width="273" height="30" as="alternateBounds" />
          </mxGeometry>
        </mxCell>
        <mxCell id="qUH4pPLVqTFTwaiTXcvp-47" value="" style="shape=tableRow;horizontal=0;startSize=0;swimlaneHead=0;swimlaneBody=0;top=0;left=0;bottom=0;right=0;collapsible=0;dropTarget=0;fillColor=none;points=[[0,0.5],[1,0.5]];portConstraint=eastwest;strokeColor=inherit;fontSize=16;" parent="qUH4pPLVqTFTwaiTXcvp-43" vertex="1">
          <mxGeometry y="60" width="350" height="30" as="geometry" />
        </mxCell>
        <mxCell id="qUH4pPLVqTFTwaiTXcvp-48" value="" style="shape=partialRectangle;html=1;whiteSpace=wrap;connectable=0;fillColor=none;top=0;left=0;bottom=0;right=0;overflow=hidden;strokeColor=inherit;fontSize=16;" parent="qUH4pPLVqTFTwaiTXcvp-47" vertex="1">
          <mxGeometry width="77" height="30" as="geometry">
            <mxRectangle width="77" height="30" as="alternateBounds" />
          </mxGeometry>
        </mxCell>
        <mxCell id="qUH4pPLVqTFTwaiTXcvp-49" value="geneticProtocolID" style="shape=partialRectangle;html=1;whiteSpace=wrap;connectable=0;fillColor=none;top=0;left=0;bottom=0;right=0;align=left;spacingLeft=6;overflow=hidden;strokeColor=inherit;fontSize=16;" parent="qUH4pPLVqTFTwaiTXcvp-47" vertex="1">
          <mxGeometry x="77" width="273" height="30" as="geometry">
            <mxRectangle width="273" height="30" as="alternateBounds" />
          </mxGeometry>
        </mxCell>
        <mxCell id="qUH4pPLVqTFTwaiTXcvp-53" style="shape=tableRow;horizontal=0;startSize=0;swimlaneHead=0;swimlaneBody=0;top=0;left=0;bottom=0;right=0;collapsible=0;dropTarget=0;fillColor=none;points=[[0,0.5],[1,0.5]];portConstraint=eastwest;strokeColor=inherit;fontSize=16;" parent="qUH4pPLVqTFTwaiTXcvp-43" vertex="1">
          <mxGeometry y="90" width="350" height="30" as="geometry" />
        </mxCell>
        <mxCell id="qUH4pPLVqTFTwaiTXcvp-54" value="" style="shape=partialRectangle;html=1;whiteSpace=wrap;connectable=0;fillColor=none;top=0;left=0;bottom=0;right=0;overflow=hidden;strokeColor=inherit;fontSize=16;" parent="qUH4pPLVqTFTwaiTXcvp-53" vertex="1">
          <mxGeometry width="77" height="30" as="geometry">
            <mxRectangle width="77" height="30" as="alternateBounds" />
          </mxGeometry>
        </mxCell>
        <mxCell id="qUH4pPLVqTFTwaiTXcvp-55" value="geneticSequenceID" style="shape=partialRectangle;html=1;whiteSpace=wrap;connectable=0;fillColor=none;top=0;left=0;bottom=0;right=0;align=left;spacingLeft=6;overflow=hidden;strokeColor=inherit;fontSize=16;" parent="qUH4pPLVqTFTwaiTXcvp-53" vertex="1">
          <mxGeometry x="77" width="273" height="30" as="geometry">
            <mxRectangle width="273" height="30" as="alternateBounds" />
          </mxGeometry>
        </mxCell>
        <mxCell id="9F0vchl4Z2Q72RuIH1m0-13" style="shape=tableRow;horizontal=0;startSize=0;swimlaneHead=0;swimlaneBody=0;top=0;left=0;bottom=0;right=0;collapsible=0;dropTarget=0;fillColor=none;points=[[0,0.5],[1,0.5]];portConstraint=eastwest;strokeColor=inherit;fontSize=16;" parent="qUH4pPLVqTFTwaiTXcvp-43" vertex="1">
          <mxGeometry y="120" width="350" height="30" as="geometry" />
        </mxCell>
        <mxCell id="9F0vchl4Z2Q72RuIH1m0-14" style="shape=partialRectangle;html=1;whiteSpace=wrap;connectable=0;fillColor=none;top=0;left=0;bottom=0;right=0;overflow=hidden;strokeColor=inherit;fontSize=16;" parent="9F0vchl4Z2Q72RuIH1m0-13" vertex="1">
          <mxGeometry width="77" height="30" as="geometry">
            <mxRectangle width="77" height="30" as="alternateBounds" />
          </mxGeometry>
        </mxCell>
        <mxCell id="9F0vchl4Z2Q72RuIH1m0-15" value="eventID" style="shape=partialRectangle;html=1;whiteSpace=wrap;connectable=0;fillColor=none;top=0;left=0;bottom=0;right=0;align=left;spacingLeft=6;overflow=hidden;strokeColor=inherit;fontSize=16;" parent="9F0vchl4Z2Q72RuIH1m0-13" vertex="1">
          <mxGeometry x="77" width="273" height="30" as="geometry">
            <mxRectangle width="273" height="30" as="alternateBounds" />
          </mxGeometry>
        </mxCell>
        <mxCell id="9F0vchl4Z2Q72RuIH1m0-10" style="shape=tableRow;horizontal=0;startSize=0;swimlaneHead=0;swimlaneBody=0;top=0;left=0;bottom=0;right=0;collapsible=0;dropTarget=0;fillColor=none;points=[[0,0.5],[1,0.5]];portConstraint=eastwest;strokeColor=inherit;fontSize=16;" parent="qUH4pPLVqTFTwaiTXcvp-43" vertex="1">
          <mxGeometry y="150" width="350" height="30" as="geometry" />
        </mxCell>
        <mxCell id="9F0vchl4Z2Q72RuIH1m0-11" style="shape=partialRectangle;html=1;whiteSpace=wrap;connectable=0;fillColor=none;top=0;left=0;bottom=0;right=0;overflow=hidden;strokeColor=inherit;fontSize=16;" parent="9F0vchl4Z2Q72RuIH1m0-10" vertex="1">
          <mxGeometry width="77" height="30" as="geometry">
            <mxRectangle width="77" height="30" as="alternateBounds" />
          </mxGeometry>
        </mxCell>
        <mxCell id="9F0vchl4Z2Q72RuIH1m0-12" value="materialEntityID" style="shape=partialRectangle;html=1;whiteSpace=wrap;connectable=0;fillColor=none;top=0;left=0;bottom=0;right=0;align=left;spacingLeft=6;overflow=hidden;strokeColor=inherit;fontSize=16;" parent="9F0vchl4Z2Q72RuIH1m0-10" vertex="1">
          <mxGeometry x="77" width="273" height="30" as="geometry">
            <mxRectangle width="273" height="30" as="alternateBounds" />
          </mxGeometry>
        </mxCell>
        <mxCell id="9F0vchl4Z2Q72RuIH1m0-19" style="shape=tableRow;horizontal=0;startSize=0;swimlaneHead=0;swimlaneBody=0;top=0;left=0;bottom=0;right=0;collapsible=0;dropTarget=0;fillColor=none;points=[[0,0.5],[1,0.5]];portConstraint=eastwest;strokeColor=inherit;fontSize=16;" parent="qUH4pPLVqTFTwaiTXcvp-43" vertex="1">
          <mxGeometry y="180" width="350" height="30" as="geometry" />
        </mxCell>
        <mxCell id="9F0vchl4Z2Q72RuIH1m0-20" style="shape=partialRectangle;html=1;whiteSpace=wrap;connectable=0;fillColor=none;top=0;left=0;bottom=0;right=0;overflow=hidden;strokeColor=inherit;fontSize=16;" parent="9F0vchl4Z2Q72RuIH1m0-19" vertex="1">
          <mxGeometry width="77" height="30" as="geometry">
            <mxRectangle width="77" height="30" as="alternateBounds" />
          </mxGeometry>
        </mxCell>
        <mxCell id="9F0vchl4Z2Q72RuIH1m0-21" value="readCount" style="shape=partialRectangle;html=1;whiteSpace=wrap;connectable=0;fillColor=none;top=0;left=0;bottom=0;right=0;align=left;spacingLeft=6;overflow=hidden;strokeColor=inherit;fontSize=16;" parent="9F0vchl4Z2Q72RuIH1m0-19" vertex="1">
          <mxGeometry x="77" width="273" height="30" as="geometry">
            <mxRectangle width="273" height="30" as="alternateBounds" />
          </mxGeometry>
        </mxCell>
        <mxCell id="9F0vchl4Z2Q72RuIH1m0-16" style="shape=tableRow;horizontal=0;startSize=0;swimlaneHead=0;swimlaneBody=0;top=0;left=0;bottom=0;right=0;collapsible=0;dropTarget=0;fillColor=none;points=[[0,0.5],[1,0.5]];portConstraint=eastwest;strokeColor=inherit;fontSize=16;" parent="qUH4pPLVqTFTwaiTXcvp-43" vertex="1">
          <mxGeometry y="210" width="350" height="30" as="geometry" />
        </mxCell>
        <mxCell id="9F0vchl4Z2Q72RuIH1m0-17" style="shape=partialRectangle;html=1;whiteSpace=wrap;connectable=0;fillColor=none;top=0;left=0;bottom=0;right=0;overflow=hidden;strokeColor=inherit;fontSize=16;" parent="9F0vchl4Z2Q72RuIH1m0-16" vertex="1">
          <mxGeometry width="77" height="30" as="geometry">
            <mxRectangle width="77" height="30" as="alternateBounds" />
          </mxGeometry>
        </mxCell>
        <mxCell id="9F0vchl4Z2Q72RuIH1m0-18" value="totalReadCount" style="shape=partialRectangle;html=1;whiteSpace=wrap;connectable=0;fillColor=none;top=0;left=0;bottom=0;right=0;align=left;spacingLeft=6;overflow=hidden;strokeColor=inherit;fontSize=16;" parent="9F0vchl4Z2Q72RuIH1m0-16" vertex="1">
          <mxGeometry x="77" width="273" height="30" as="geometry">
            <mxRectangle width="273" height="30" as="alternateBounds" />
          </mxGeometry>
        </mxCell>
        <mxCell id="qUH4pPLVqTFTwaiTXcvp-59" value="geneticSequence" style="shape=table;startSize=30;container=1;collapsible=0;childLayout=tableLayout;fixedRows=1;rowLines=0;fontStyle=0;strokeColor=default;fontSize=16;" parent="1" vertex="1">
          <mxGeometry x="560" y="10" width="200" height="90" as="geometry" />
        </mxCell>
        <mxCell id="qUH4pPLVqTFTwaiTXcvp-60" value="" style="shape=tableRow;horizontal=0;startSize=0;swimlaneHead=0;swimlaneBody=0;top=0;left=0;bottom=0;right=0;collapsible=0;dropTarget=0;fillColor=none;points=[[0,0.5],[1,0.5]];portConstraint=eastwest;strokeColor=inherit;fontSize=16;" parent="qUH4pPLVqTFTwaiTXcvp-59" vertex="1">
          <mxGeometry y="30" width="200" height="30" as="geometry" />
        </mxCell>
        <mxCell id="qUH4pPLVqTFTwaiTXcvp-61" value="PK" style="shape=partialRectangle;html=1;whiteSpace=wrap;connectable=0;fillColor=none;top=0;left=0;bottom=0;right=0;overflow=hidden;pointerEvents=1;strokeColor=inherit;fontSize=16;" parent="qUH4pPLVqTFTwaiTXcvp-60" vertex="1">
          <mxGeometry width="44" height="30" as="geometry">
            <mxRectangle width="44" height="30" as="alternateBounds" />
          </mxGeometry>
        </mxCell>
        <mxCell id="qUH4pPLVqTFTwaiTXcvp-62" value="geneticSequenceID" style="shape=partialRectangle;html=1;whiteSpace=wrap;connectable=0;fillColor=none;top=0;left=0;bottom=0;right=0;align=left;spacingLeft=6;overflow=hidden;strokeColor=inherit;fontSize=16;" parent="qUH4pPLVqTFTwaiTXcvp-60" vertex="1">
          <mxGeometry x="44" width="156" height="30" as="geometry">
            <mxRectangle width="156" height="30" as="alternateBounds" />
          </mxGeometry>
        </mxCell>
        <mxCell id="qUH4pPLVqTFTwaiTXcvp-63" value="" style="shape=tableRow;horizontal=0;startSize=0;swimlaneHead=0;swimlaneBody=0;top=0;left=0;bottom=0;right=0;collapsible=0;dropTarget=0;fillColor=none;points=[[0,0.5],[1,0.5]];portConstraint=eastwest;strokeColor=inherit;fontSize=16;" parent="qUH4pPLVqTFTwaiTXcvp-59" vertex="1">
          <mxGeometry y="60" width="200" height="30" as="geometry" />
        </mxCell>
        <mxCell id="qUH4pPLVqTFTwaiTXcvp-64" value="" style="shape=partialRectangle;html=1;whiteSpace=wrap;connectable=0;fillColor=none;top=0;left=0;bottom=0;right=0;overflow=hidden;strokeColor=inherit;fontSize=16;" parent="qUH4pPLVqTFTwaiTXcvp-63" vertex="1">
          <mxGeometry width="44" height="30" as="geometry">
            <mxRectangle width="44" height="30" as="alternateBounds" />
          </mxGeometry>
        </mxCell>
        <mxCell id="qUH4pPLVqTFTwaiTXcvp-65" value="&lt;span&gt;&lt;span class=&quot;objectBox objectBox-string&quot;&gt;geneticSequence&lt;/span&gt;&lt;/span&gt;" style="shape=partialRectangle;html=1;whiteSpace=wrap;connectable=0;fillColor=none;top=0;left=0;bottom=0;right=0;align=left;spacingLeft=6;overflow=hidden;strokeColor=inherit;fontSize=16;" parent="qUH4pPLVqTFTwaiTXcvp-63" vertex="1">
          <mxGeometry x="44" width="156" height="30" as="geometry">
            <mxRectangle width="156" height="30" as="alternateBounds" />
          </mxGeometry>
        </mxCell>
        <mxCell id="qUH4pPLVqTFTwaiTXcvp-130" value="Event" style="shape=table;startSize=30;container=1;collapsible=0;childLayout=tableLayout;fixedRows=1;rowLines=0;fontStyle=0;strokeColor=default;fontSize=16;" parent="1" vertex="1">
          <mxGeometry x="-390" y="210" width="280" height="120" as="geometry" />
        </mxCell>
        <mxCell id="qUH4pPLVqTFTwaiTXcvp-131" value="" style="shape=tableRow;horizontal=0;startSize=0;swimlaneHead=0;swimlaneBody=0;top=0;left=0;bottom=0;right=0;collapsible=0;dropTarget=0;fillColor=none;points=[[0,0.5],[1,0.5]];portConstraint=eastwest;strokeColor=inherit;fontSize=16;" parent="qUH4pPLVqTFTwaiTXcvp-130" vertex="1">
          <mxGeometry y="30" width="280" height="30" as="geometry" />
        </mxCell>
        <mxCell id="qUH4pPLVqTFTwaiTXcvp-132" value="PK" style="shape=partialRectangle;html=1;whiteSpace=wrap;connectable=0;fillColor=none;top=0;left=0;bottom=0;right=0;overflow=hidden;pointerEvents=1;strokeColor=inherit;fontSize=16;" parent="qUH4pPLVqTFTwaiTXcvp-131" vertex="1">
          <mxGeometry width="62" height="30" as="geometry">
            <mxRectangle width="62" height="30" as="alternateBounds" />
          </mxGeometry>
        </mxCell>
        <mxCell id="qUH4pPLVqTFTwaiTXcvp-133" value="eventID" style="shape=partialRectangle;html=1;whiteSpace=wrap;connectable=0;fillColor=none;top=0;left=0;bottom=0;right=0;align=left;spacingLeft=6;overflow=hidden;strokeColor=inherit;fontSize=16;" parent="qUH4pPLVqTFTwaiTXcvp-131" vertex="1">
          <mxGeometry x="62" width="218" height="30" as="geometry">
            <mxRectangle width="218" height="30" as="alternateBounds" />
          </mxGeometry>
        </mxCell>
        <mxCell id="qUH4pPLVqTFTwaiTXcvp-134" value="" style="shape=tableRow;horizontal=0;startSize=0;swimlaneHead=0;swimlaneBody=0;top=0;left=0;bottom=0;right=0;collapsible=0;dropTarget=0;fillColor=none;points=[[0,0.5],[1,0.5]];portConstraint=eastwest;strokeColor=inherit;fontSize=16;" parent="qUH4pPLVqTFTwaiTXcvp-130" vertex="1">
          <mxGeometry y="60" width="280" height="30" as="geometry" />
        </mxCell>
        <mxCell id="qUH4pPLVqTFTwaiTXcvp-135" value="" style="shape=partialRectangle;html=1;whiteSpace=wrap;connectable=0;fillColor=none;top=0;left=0;bottom=0;right=0;overflow=hidden;strokeColor=inherit;fontSize=16;" parent="qUH4pPLVqTFTwaiTXcvp-134" vertex="1">
          <mxGeometry width="62" height="30" as="geometry">
            <mxRectangle width="62" height="30" as="alternateBounds" />
          </mxGeometry>
        </mxCell>
        <mxCell id="qUH4pPLVqTFTwaiTXcvp-136" value="..." style="shape=partialRectangle;html=1;whiteSpace=wrap;connectable=0;fillColor=none;top=0;left=0;bottom=0;right=0;align=left;spacingLeft=6;overflow=hidden;strokeColor=inherit;fontSize=16;" parent="qUH4pPLVqTFTwaiTXcvp-134" vertex="1">
          <mxGeometry x="62" width="218" height="30" as="geometry">
            <mxRectangle width="218" height="30" as="alternateBounds" />
          </mxGeometry>
        </mxCell>
        <mxCell id="qUH4pPLVqTFTwaiTXcvp-137" value="" style="shape=tableRow;horizontal=0;startSize=0;swimlaneHead=0;swimlaneBody=0;top=0;left=0;bottom=0;right=0;collapsible=0;dropTarget=0;fillColor=none;points=[[0,0.5],[1,0.5]];portConstraint=eastwest;strokeColor=inherit;fontSize=16;" parent="qUH4pPLVqTFTwaiTXcvp-130" vertex="1">
          <mxGeometry y="90" width="280" height="30" as="geometry" />
        </mxCell>
        <mxCell id="qUH4pPLVqTFTwaiTXcvp-138" value="" style="shape=partialRectangle;html=1;whiteSpace=wrap;connectable=0;fillColor=none;top=0;left=0;bottom=0;right=0;overflow=hidden;strokeColor=inherit;fontSize=16;" parent="qUH4pPLVqTFTwaiTXcvp-137" vertex="1">
          <mxGeometry width="62" height="30" as="geometry">
            <mxRectangle width="62" height="30" as="alternateBounds" />
          </mxGeometry>
        </mxCell>
        <mxCell id="qUH4pPLVqTFTwaiTXcvp-139" value="[realm/biome related fields]" style="shape=partialRectangle;html=1;whiteSpace=wrap;connectable=0;fillColor=none;top=0;left=0;bottom=0;right=0;align=left;spacingLeft=6;overflow=hidden;strokeColor=inherit;fontSize=16;" parent="qUH4pPLVqTFTwaiTXcvp-137" vertex="1">
          <mxGeometry x="62" width="218" height="30" as="geometry">
            <mxRectangle width="218" height="30" as="alternateBounds" />
          </mxGeometry>
        </mxCell>
        <mxCell id="qUH4pPLVqTFTwaiTXcvp-240" value="Material" style="shape=table;startSize=30;container=1;collapsible=0;childLayout=tableLayout;fixedRows=1;rowLines=0;fontStyle=0;strokeColor=default;fontSize=16;" parent="1" vertex="1">
          <mxGeometry x="-360" y="490" width="180" height="120" as="geometry" />
        </mxCell>
        <mxCell id="qUH4pPLVqTFTwaiTXcvp-241" value="" style="shape=tableRow;horizontal=0;startSize=0;swimlaneHead=0;swimlaneBody=0;top=0;left=0;bottom=0;right=0;collapsible=0;dropTarget=0;fillColor=none;points=[[0,0.5],[1,0.5]];portConstraint=eastwest;strokeColor=inherit;fontSize=16;" parent="qUH4pPLVqTFTwaiTXcvp-240" vertex="1">
          <mxGeometry y="30" width="180" height="30" as="geometry" />
        </mxCell>
        <mxCell id="qUH4pPLVqTFTwaiTXcvp-242" value="PK" style="shape=partialRectangle;html=1;whiteSpace=wrap;connectable=0;fillColor=none;top=0;left=0;bottom=0;right=0;overflow=hidden;pointerEvents=1;strokeColor=inherit;fontSize=16;" parent="qUH4pPLVqTFTwaiTXcvp-241" vertex="1">
          <mxGeometry width="40" height="30" as="geometry">
            <mxRectangle width="40" height="30" as="alternateBounds" />
          </mxGeometry>
        </mxCell>
        <mxCell id="qUH4pPLVqTFTwaiTXcvp-243" value="materialEntityID" style="shape=partialRectangle;html=1;whiteSpace=wrap;connectable=0;fillColor=none;top=0;left=0;bottom=0;right=0;align=left;spacingLeft=6;overflow=hidden;strokeColor=inherit;fontSize=16;" parent="qUH4pPLVqTFTwaiTXcvp-241" vertex="1">
          <mxGeometry x="40" width="140" height="30" as="geometry">
            <mxRectangle width="140" height="30" as="alternateBounds" />
          </mxGeometry>
        </mxCell>
        <mxCell id="qUH4pPLVqTFTwaiTXcvp-244" value="" style="shape=tableRow;horizontal=0;startSize=0;swimlaneHead=0;swimlaneBody=0;top=0;left=0;bottom=0;right=0;collapsible=0;dropTarget=0;fillColor=none;points=[[0,0.5],[1,0.5]];portConstraint=eastwest;strokeColor=inherit;fontSize=16;" parent="qUH4pPLVqTFTwaiTXcvp-240" vertex="1">
          <mxGeometry y="60" width="180" height="30" as="geometry" />
        </mxCell>
        <mxCell id="qUH4pPLVqTFTwaiTXcvp-245" value="FK" style="shape=partialRectangle;html=1;whiteSpace=wrap;connectable=0;fillColor=none;top=0;left=0;bottom=0;right=0;overflow=hidden;strokeColor=inherit;fontSize=16;" parent="qUH4pPLVqTFTwaiTXcvp-244" vertex="1">
          <mxGeometry width="40" height="30" as="geometry">
            <mxRectangle width="40" height="30" as="alternateBounds" />
          </mxGeometry>
        </mxCell>
        <mxCell id="qUH4pPLVqTFTwaiTXcvp-246" value="eventID" style="shape=partialRectangle;html=1;whiteSpace=wrap;connectable=0;fillColor=none;top=0;left=0;bottom=0;right=0;align=left;spacingLeft=6;overflow=hidden;strokeColor=inherit;fontSize=16;" parent="qUH4pPLVqTFTwaiTXcvp-244" vertex="1">
          <mxGeometry x="40" width="140" height="30" as="geometry">
            <mxRectangle width="140" height="30" as="alternateBounds" />
          </mxGeometry>
        </mxCell>
        <mxCell id="qUH4pPLVqTFTwaiTXcvp-247" value="" style="shape=tableRow;horizontal=0;startSize=0;swimlaneHead=0;swimlaneBody=0;top=0;left=0;bottom=0;right=0;collapsible=0;dropTarget=0;fillColor=none;points=[[0,0.5],[1,0.5]];portConstraint=eastwest;strokeColor=inherit;fontSize=16;" parent="qUH4pPLVqTFTwaiTXcvp-240" vertex="1">
          <mxGeometry y="90" width="180" height="30" as="geometry" />
        </mxCell>
        <mxCell id="qUH4pPLVqTFTwaiTXcvp-248" value="" style="shape=partialRectangle;html=1;whiteSpace=wrap;connectable=0;fillColor=none;top=0;left=0;bottom=0;right=0;overflow=hidden;strokeColor=inherit;fontSize=16;" parent="qUH4pPLVqTFTwaiTXcvp-247" vertex="1">
          <mxGeometry width="40" height="30" as="geometry">
            <mxRectangle width="40" height="30" as="alternateBounds" />
          </mxGeometry>
        </mxCell>
        <mxCell id="qUH4pPLVqTFTwaiTXcvp-249" value="..." style="shape=partialRectangle;html=1;whiteSpace=wrap;connectable=0;fillColor=none;top=0;left=0;bottom=0;right=0;align=left;spacingLeft=6;overflow=hidden;strokeColor=inherit;fontSize=16;" parent="qUH4pPLVqTFTwaiTXcvp-247" vertex="1">
          <mxGeometry x="40" width="140" height="30" as="geometry">
            <mxRectangle width="140" height="30" as="alternateBounds" />
          </mxGeometry>
        </mxCell>
        <mxCell id="buo-0YtgCeYlMdGR6EzK-1" value="" style="shape=curlyBracket;whiteSpace=wrap;html=1;rounded=1;flipH=1;labelPosition=right;verticalLabelPosition=middle;align=left;verticalAlign=middle;" parent="1" vertex="1">
          <mxGeometry x="310" y="186.05" width="20" height="80" as="geometry" />
        </mxCell>
        <mxCell id="buo-0YtgCeYlMdGR6EzK-2" value="UK" style="text;html=1;align=center;verticalAlign=middle;resizable=0;points=[];autosize=1;strokeColor=none;fillColor=none;" parent="1" vertex="1">
          <mxGeometry x="330" y="210" width="40" height="30" as="geometry" />
        </mxCell>
        <mxCell id="WmTq8ZV5PMSnHw8i3acf-26" value="" style="endArrow=classic;startArrow=classic;html=1;rounded=0;entryX=0;entryY=0.5;entryDx=0;entryDy=0;edgeStyle=orthogonalEdgeStyle;" parent="1" source="qUH4pPLVqTFTwaiTXcvp-44" target="WmTq8ZV5PMSnHw8i3acf-23" edge="1">
          <mxGeometry width="50" height="50" relative="1" as="geometry">
            <mxPoint x="430" y="450" as="sourcePoint" />
            <mxPoint x="170" y="580" as="targetPoint" />
            <Array as="points">
              <mxPoint x="-220" y="165" />
              <mxPoint x="-220" y="-75" />
            </Array>
          </mxGeometry>
        </mxCell>
        <mxCell id="QGbw1XmalqU2caGTYsNW-16" value="geneticProtocol" style="shape=table;startSize=30;container=1;collapsible=0;childLayout=tableLayout;fixedRows=1;rowLines=0;fontStyle=0;strokeColor=default;fontSize=16;" parent="1" vertex="1">
          <mxGeometry x="560" y="266.05" width="447.5" height="1040" as="geometry" />
        </mxCell>
        <mxCell id="QGbw1XmalqU2caGTYsNW-17" value="" style="shape=tableRow;horizontal=0;startSize=0;swimlaneHead=0;swimlaneBody=0;top=0;left=0;bottom=0;right=0;collapsible=0;dropTarget=0;fillColor=none;points=[[0,0.5],[1,0.5]];portConstraint=eastwest;strokeColor=inherit;fontSize=16;" parent="QGbw1XmalqU2caGTYsNW-16" vertex="1">
          <mxGeometry y="30" width="447.5" height="40" as="geometry" />
        </mxCell>
        <mxCell id="QGbw1XmalqU2caGTYsNW-18" value="PK" style="shape=partialRectangle;html=1;whiteSpace=wrap;connectable=0;fillColor=none;top=0;left=0;bottom=0;right=0;overflow=hidden;pointerEvents=1;strokeColor=inherit;fontSize=16;" parent="QGbw1XmalqU2caGTYsNW-17" vertex="1">
          <mxGeometry width="99" height="40" as="geometry">
            <mxRectangle width="99" height="40" as="alternateBounds" />
          </mxGeometry>
        </mxCell>
        <mxCell id="QGbw1XmalqU2caGTYsNW-19" value="geneticProtocolID" style="shape=partialRectangle;html=1;whiteSpace=wrap;connectable=0;fillColor=none;top=0;left=0;bottom=0;right=0;align=left;spacingLeft=6;overflow=hidden;strokeColor=inherit;fontSize=16;" parent="QGbw1XmalqU2caGTYsNW-17" vertex="1">
          <mxGeometry x="99" width="349" height="40" as="geometry">
            <mxRectangle width="349" height="40" as="alternateBounds" />
          </mxGeometry>
        </mxCell>
        <mxCell id="QGbw1XmalqU2caGTYsNW-26" style="shape=tableRow;horizontal=0;startSize=0;swimlaneHead=0;swimlaneBody=0;top=0;left=0;bottom=0;right=0;collapsible=0;dropTarget=0;fillColor=none;points=[[0,0.5],[1,0.5]];portConstraint=eastwest;strokeColor=inherit;fontSize=16;" parent="QGbw1XmalqU2caGTYsNW-16" vertex="1">
          <mxGeometry y="70" width="447.5" height="30" as="geometry" />
        </mxCell>
        <mxCell id="QGbw1XmalqU2caGTYsNW-27" style="shape=partialRectangle;html=1;whiteSpace=wrap;connectable=0;fillColor=none;top=0;left=0;bottom=0;right=0;overflow=hidden;strokeColor=inherit;fontSize=16;" parent="QGbw1XmalqU2caGTYsNW-26" vertex="1">
          <mxGeometry width="99" height="30" as="geometry">
            <mxRectangle width="99" height="30" as="alternateBounds" />
          </mxGeometry>
        </mxCell>
        <mxCell id="QGbw1XmalqU2caGTYsNW-28" value="pcr_primer_reference" style="shape=partialRectangle;html=1;whiteSpace=wrap;connectable=0;fillColor=none;top=0;left=0;bottom=0;right=0;align=left;spacingLeft=6;overflow=hidden;strokeColor=inherit;fontSize=16;" parent="QGbw1XmalqU2caGTYsNW-26" vertex="1">
          <mxGeometry x="99" width="349" height="30" as="geometry">
            <mxRectangle width="349" height="30" as="alternateBounds" />
          </mxGeometry>
        </mxCell>
        <mxCell id="QGbw1XmalqU2caGTYsNW-29" style="shape=tableRow;horizontal=0;startSize=0;swimlaneHead=0;swimlaneBody=0;top=0;left=0;bottom=0;right=0;collapsible=0;dropTarget=0;fillColor=none;points=[[0,0.5],[1,0.5]];portConstraint=eastwest;strokeColor=inherit;fontSize=16;" parent="QGbw1XmalqU2caGTYsNW-16" vertex="1">
          <mxGeometry y="100" width="447.5" height="30" as="geometry" />
        </mxCell>
        <mxCell id="QGbw1XmalqU2caGTYsNW-30" style="shape=partialRectangle;html=1;whiteSpace=wrap;connectable=0;fillColor=none;top=0;left=0;bottom=0;right=0;overflow=hidden;strokeColor=inherit;fontSize=16;" parent="QGbw1XmalqU2caGTYsNW-29" vertex="1">
          <mxGeometry width="99" height="30" as="geometry">
            <mxRectangle width="99" height="30" as="alternateBounds" />
          </mxGeometry>
        </mxCell>
        <mxCell id="QGbw1XmalqU2caGTYsNW-31" value="pcr_primer_fwd" style="shape=partialRectangle;html=1;whiteSpace=wrap;connectable=0;fillColor=none;top=0;left=0;bottom=0;right=0;align=left;spacingLeft=6;overflow=hidden;strokeColor=inherit;fontSize=16;" parent="QGbw1XmalqU2caGTYsNW-29" vertex="1">
          <mxGeometry x="99" width="349" height="30" as="geometry">
            <mxRectangle width="349" height="30" as="alternateBounds" />
          </mxGeometry>
        </mxCell>
        <mxCell id="QGbw1XmalqU2caGTYsNW-32" style="shape=tableRow;horizontal=0;startSize=0;swimlaneHead=0;swimlaneBody=0;top=0;left=0;bottom=0;right=0;collapsible=0;dropTarget=0;fillColor=none;points=[[0,0.5],[1,0.5]];portConstraint=eastwest;strokeColor=inherit;fontSize=16;" parent="QGbw1XmalqU2caGTYsNW-16" vertex="1">
          <mxGeometry y="130" width="447.5" height="30" as="geometry" />
        </mxCell>
        <mxCell id="QGbw1XmalqU2caGTYsNW-33" style="shape=partialRectangle;html=1;whiteSpace=wrap;connectable=0;fillColor=none;top=0;left=0;bottom=0;right=0;overflow=hidden;strokeColor=inherit;fontSize=16;" parent="QGbw1XmalqU2caGTYsNW-32" vertex="1">
          <mxGeometry width="99" height="30" as="geometry">
            <mxRectangle width="99" height="30" as="alternateBounds" />
          </mxGeometry>
        </mxCell>
        <mxCell id="QGbw1XmalqU2caGTYsNW-34" value="pcr_primer_reverse" style="shape=partialRectangle;html=1;whiteSpace=wrap;connectable=0;fillColor=none;top=0;left=0;bottom=0;right=0;align=left;spacingLeft=6;overflow=hidden;strokeColor=inherit;fontSize=16;" parent="QGbw1XmalqU2caGTYsNW-32" vertex="1">
          <mxGeometry x="99" width="349" height="30" as="geometry">
            <mxRectangle width="349" height="30" as="alternateBounds" />
          </mxGeometry>
        </mxCell>
        <mxCell id="QGbw1XmalqU2caGTYsNW-35" style="shape=tableRow;horizontal=0;startSize=0;swimlaneHead=0;swimlaneBody=0;top=0;left=0;bottom=0;right=0;collapsible=0;dropTarget=0;fillColor=none;points=[[0,0.5],[1,0.5]];portConstraint=eastwest;strokeColor=inherit;fontSize=16;" parent="QGbw1XmalqU2caGTYsNW-16" vertex="1">
          <mxGeometry y="160" width="447.5" height="30" as="geometry" />
        </mxCell>
        <mxCell id="QGbw1XmalqU2caGTYsNW-36" style="shape=partialRectangle;html=1;whiteSpace=wrap;connectable=0;fillColor=none;top=0;left=0;bottom=0;right=0;overflow=hidden;strokeColor=inherit;fontSize=16;" parent="QGbw1XmalqU2caGTYsNW-35" vertex="1">
          <mxGeometry width="99" height="30" as="geometry">
            <mxRectangle width="99" height="30" as="alternateBounds" />
          </mxGeometry>
        </mxCell>
        <mxCell id="QGbw1XmalqU2caGTYsNW-37" value="target_gene/&lt;span&gt;&lt;span class=&quot;objectBox objectBox-string&quot;&gt;geneticSequenceType&lt;/span&gt;&lt;/span&gt;" style="shape=partialRectangle;html=1;whiteSpace=wrap;connectable=0;fillColor=none;top=0;left=0;bottom=0;right=0;align=left;spacingLeft=6;overflow=hidden;strokeColor=inherit;fontSize=16;" parent="QGbw1XmalqU2caGTYsNW-35" vertex="1">
          <mxGeometry x="99" width="349" height="30" as="geometry">
            <mxRectangle width="349" height="30" as="alternateBounds" />
          </mxGeometry>
        </mxCell>
        <mxCell id="QGbw1XmalqU2caGTYsNW-38" style="shape=tableRow;horizontal=0;startSize=0;swimlaneHead=0;swimlaneBody=0;top=0;left=0;bottom=0;right=0;collapsible=0;dropTarget=0;fillColor=none;points=[[0,0.5],[1,0.5]];portConstraint=eastwest;strokeColor=inherit;fontSize=16;" parent="QGbw1XmalqU2caGTYsNW-16" vertex="1">
          <mxGeometry y="190" width="447.5" height="30" as="geometry" />
        </mxCell>
        <mxCell id="QGbw1XmalqU2caGTYsNW-39" style="shape=partialRectangle;html=1;whiteSpace=wrap;connectable=0;fillColor=none;top=0;left=0;bottom=0;right=0;overflow=hidden;strokeColor=inherit;fontSize=16;" parent="QGbw1XmalqU2caGTYsNW-38" vertex="1">
          <mxGeometry width="99" height="30" as="geometry">
            <mxRectangle width="99" height="30" as="alternateBounds" />
          </mxGeometry>
        </mxCell>
        <mxCell id="QGbw1XmalqU2caGTYsNW-40" value="target_subfragment" style="shape=partialRectangle;html=1;whiteSpace=wrap;connectable=0;fillColor=none;top=0;left=0;bottom=0;right=0;align=left;spacingLeft=6;overflow=hidden;strokeColor=inherit;fontSize=16;" parent="QGbw1XmalqU2caGTYsNW-38" vertex="1">
          <mxGeometry x="99" width="349" height="30" as="geometry">
            <mxRectangle width="349" height="30" as="alternateBounds" />
          </mxGeometry>
        </mxCell>
        <mxCell id="Qp3W3nuj6A5tC4hSGvUT-4" style="shape=tableRow;horizontal=0;startSize=0;swimlaneHead=0;swimlaneBody=0;top=0;left=0;bottom=0;right=0;collapsible=0;dropTarget=0;fillColor=none;points=[[0,0.5],[1,0.5]];portConstraint=eastwest;strokeColor=inherit;fontSize=16;" vertex="1" parent="QGbw1XmalqU2caGTYsNW-16">
          <mxGeometry y="220" width="447.5" height="30" as="geometry" />
        </mxCell>
        <mxCell id="Qp3W3nuj6A5tC4hSGvUT-5" style="shape=partialRectangle;html=1;whiteSpace=wrap;connectable=0;fillColor=none;top=0;left=0;bottom=0;right=0;overflow=hidden;strokeColor=inherit;fontSize=16;" vertex="1" parent="Qp3W3nuj6A5tC4hSGvUT-4">
          <mxGeometry width="99" height="30" as="geometry">
            <mxRectangle width="99" height="30" as="alternateBounds" />
          </mxGeometry>
        </mxCell>
        <mxCell id="Qp3W3nuj6A5tC4hSGvUT-6" value="sop" style="shape=partialRectangle;html=1;whiteSpace=wrap;connectable=0;fillColor=none;top=0;left=0;bottom=0;right=0;align=left;spacingLeft=6;overflow=hidden;strokeColor=inherit;fontSize=16;" vertex="1" parent="Qp3W3nuj6A5tC4hSGvUT-4">
          <mxGeometry x="99" width="349" height="30" as="geometry">
            <mxRectangle width="349" height="30" as="alternateBounds" />
          </mxGeometry>
        </mxCell>
        <mxCell id="QGbw1XmalqU2caGTYsNW-47" style="shape=tableRow;horizontal=0;startSize=0;swimlaneHead=0;swimlaneBody=0;top=0;left=0;bottom=0;right=0;collapsible=0;dropTarget=0;fillColor=none;points=[[0,0.5],[1,0.5]];portConstraint=eastwest;strokeColor=inherit;fontSize=16;" parent="QGbw1XmalqU2caGTYsNW-16" vertex="1">
          <mxGeometry y="250" width="447.5" height="40" as="geometry" />
        </mxCell>
        <mxCell id="QGbw1XmalqU2caGTYsNW-48" style="shape=partialRectangle;html=1;whiteSpace=wrap;connectable=0;fillColor=none;top=0;left=0;bottom=0;right=0;overflow=hidden;strokeColor=inherit;fontSize=16;" parent="QGbw1XmalqU2caGTYsNW-47" vertex="1">
          <mxGeometry width="99" height="40" as="geometry">
            <mxRectangle width="99" height="40" as="alternateBounds" />
          </mxGeometry>
        </mxCell>
        <mxCell id="QGbw1XmalqU2caGTYsNW-49" value="associatedSequences" style="shape=partialRectangle;html=1;whiteSpace=wrap;connectable=0;fillColor=none;top=0;left=0;bottom=0;right=0;align=left;spacingLeft=6;overflow=hidden;strokeColor=inherit;fontSize=16;" parent="QGbw1XmalqU2caGTYsNW-47" vertex="1">
          <mxGeometry x="99" width="349" height="40" as="geometry">
            <mxRectangle width="349" height="40" as="alternateBounds" />
          </mxGeometry>
        </mxCell>
        <mxCell id="QGbw1XmalqU2caGTYsNW-50" style="shape=tableRow;horizontal=0;startSize=0;swimlaneHead=0;swimlaneBody=0;top=0;left=0;bottom=0;right=0;collapsible=0;dropTarget=0;fillColor=none;points=[[0,0.5],[1,0.5]];portConstraint=eastwest;strokeColor=inherit;fontSize=16;" parent="QGbw1XmalqU2caGTYsNW-16" vertex="1">
          <mxGeometry y="290" width="447.5" height="30" as="geometry" />
        </mxCell>
        <mxCell id="QGbw1XmalqU2caGTYsNW-51" style="shape=partialRectangle;html=1;whiteSpace=wrap;connectable=0;fillColor=none;top=0;left=0;bottom=0;right=0;overflow=hidden;strokeColor=inherit;fontSize=16;" parent="QGbw1XmalqU2caGTYsNW-50" vertex="1">
          <mxGeometry width="99" height="30" as="geometry">
            <mxRectangle width="99" height="30" as="alternateBounds" />
          </mxGeometry>
        </mxCell>
        <mxCell id="QGbw1XmalqU2caGTYsNW-52" value="seq_meth" style="shape=partialRectangle;html=1;whiteSpace=wrap;connectable=0;fillColor=none;top=0;left=0;bottom=0;right=0;align=left;spacingLeft=6;overflow=hidden;strokeColor=inherit;fontSize=16;" parent="QGbw1XmalqU2caGTYsNW-50" vertex="1">
          <mxGeometry x="99" width="349" height="30" as="geometry">
            <mxRectangle width="349" height="30" as="alternateBounds" />
          </mxGeometry>
        </mxCell>
        <mxCell id="QGbw1XmalqU2caGTYsNW-59" style="shape=tableRow;horizontal=0;startSize=0;swimlaneHead=0;swimlaneBody=0;top=0;left=0;bottom=0;right=0;collapsible=0;dropTarget=0;fillColor=none;points=[[0,0.5],[1,0.5]];portConstraint=eastwest;strokeColor=inherit;fontSize=16;" parent="QGbw1XmalqU2caGTYsNW-16" vertex="1">
          <mxGeometry y="320" width="447.5" height="30" as="geometry" />
        </mxCell>
        <mxCell id="QGbw1XmalqU2caGTYsNW-60" style="shape=partialRectangle;html=1;whiteSpace=wrap;connectable=0;fillColor=none;top=0;left=0;bottom=0;right=0;overflow=hidden;strokeColor=inherit;fontSize=16;" parent="QGbw1XmalqU2caGTYsNW-59" vertex="1">
          <mxGeometry width="99" height="30" as="geometry">
            <mxRectangle width="99" height="30" as="alternateBounds" />
          </mxGeometry>
        </mxCell>
        <mxCell id="QGbw1XmalqU2caGTYsNW-61" value="annealingTemp" style="shape=partialRectangle;html=1;whiteSpace=wrap;connectable=0;fillColor=none;top=0;left=0;bottom=0;right=0;align=left;spacingLeft=6;overflow=hidden;strokeColor=inherit;fontSize=16;" parent="QGbw1XmalqU2caGTYsNW-59" vertex="1">
          <mxGeometry x="99" width="349" height="30" as="geometry">
            <mxRectangle width="349" height="30" as="alternateBounds" />
          </mxGeometry>
        </mxCell>
        <mxCell id="QGbw1XmalqU2caGTYsNW-62" style="shape=tableRow;horizontal=0;startSize=0;swimlaneHead=0;swimlaneBody=0;top=0;left=0;bottom=0;right=0;collapsible=0;dropTarget=0;fillColor=none;points=[[0,0.5],[1,0.5]];portConstraint=eastwest;strokeColor=inherit;fontSize=16;" parent="QGbw1XmalqU2caGTYsNW-16" vertex="1">
          <mxGeometry y="350" width="447.5" height="30" as="geometry" />
        </mxCell>
        <mxCell id="QGbw1XmalqU2caGTYsNW-63" style="shape=partialRectangle;html=1;whiteSpace=wrap;connectable=0;fillColor=none;top=0;left=0;bottom=0;right=0;overflow=hidden;strokeColor=inherit;fontSize=16;" parent="QGbw1XmalqU2caGTYsNW-62" vertex="1">
          <mxGeometry width="99" height="30" as="geometry">
            <mxRectangle width="99" height="30" as="alternateBounds" />
          </mxGeometry>
        </mxCell>
        <mxCell id="QGbw1XmalqU2caGTYsNW-64" value="annealingTempUnit" style="shape=partialRectangle;html=1;whiteSpace=wrap;connectable=0;fillColor=none;top=0;left=0;bottom=0;right=0;align=left;spacingLeft=6;overflow=hidden;strokeColor=inherit;fontSize=16;" parent="QGbw1XmalqU2caGTYsNW-62" vertex="1">
          <mxGeometry x="99" width="349" height="30" as="geometry">
            <mxRectangle width="349" height="30" as="alternateBounds" />
          </mxGeometry>
        </mxCell>
        <mxCell id="QGbw1XmalqU2caGTYsNW-65" style="shape=tableRow;horizontal=0;startSize=0;swimlaneHead=0;swimlaneBody=0;top=0;left=0;bottom=0;right=0;collapsible=0;dropTarget=0;fillColor=none;points=[[0,0.5],[1,0.5]];portConstraint=eastwest;strokeColor=inherit;fontSize=16;" parent="QGbw1XmalqU2caGTYsNW-16" vertex="1">
          <mxGeometry y="380" width="447.5" height="30" as="geometry" />
        </mxCell>
        <mxCell id="QGbw1XmalqU2caGTYsNW-66" style="shape=partialRectangle;html=1;whiteSpace=wrap;connectable=0;fillColor=none;top=0;left=0;bottom=0;right=0;overflow=hidden;strokeColor=inherit;fontSize=16;" parent="QGbw1XmalqU2caGTYsNW-65" vertex="1">
          <mxGeometry width="99" height="30" as="geometry">
            <mxRectangle width="99" height="30" as="alternateBounds" />
          </mxGeometry>
        </mxCell>
        <mxCell id="QGbw1XmalqU2caGTYsNW-67" value="pcr_cond" style="shape=partialRectangle;html=1;whiteSpace=wrap;connectable=0;fillColor=none;top=0;left=0;bottom=0;right=0;align=left;spacingLeft=6;overflow=hidden;strokeColor=inherit;fontSize=16;" parent="QGbw1XmalqU2caGTYsNW-65" vertex="1">
          <mxGeometry x="99" width="349" height="30" as="geometry">
            <mxRectangle width="349" height="30" as="alternateBounds" />
          </mxGeometry>
        </mxCell>
        <mxCell id="QGbw1XmalqU2caGTYsNW-68" style="shape=tableRow;horizontal=0;startSize=0;swimlaneHead=0;swimlaneBody=0;top=0;left=0;bottom=0;right=0;collapsible=0;dropTarget=0;fillColor=none;points=[[0,0.5],[1,0.5]];portConstraint=eastwest;strokeColor=inherit;fontSize=16;" parent="QGbw1XmalqU2caGTYsNW-16" vertex="1">
          <mxGeometry y="410" width="447.5" height="30" as="geometry" />
        </mxCell>
        <mxCell id="QGbw1XmalqU2caGTYsNW-69" style="shape=partialRectangle;html=1;whiteSpace=wrap;connectable=0;fillColor=none;top=0;left=0;bottom=0;right=0;overflow=hidden;strokeColor=inherit;fontSize=16;" parent="QGbw1XmalqU2caGTYsNW-68" vertex="1">
          <mxGeometry width="99" height="30" as="geometry">
            <mxRectangle width="99" height="30" as="alternateBounds" />
          </mxGeometry>
        </mxCell>
        <mxCell id="QGbw1XmalqU2caGTYsNW-70" value="probeReporter" style="shape=partialRectangle;html=1;whiteSpace=wrap;connectable=0;fillColor=none;top=0;left=0;bottom=0;right=0;align=left;spacingLeft=6;overflow=hidden;strokeColor=inherit;fontSize=16;" parent="QGbw1XmalqU2caGTYsNW-68" vertex="1">
          <mxGeometry x="99" width="349" height="30" as="geometry">
            <mxRectangle width="349" height="30" as="alternateBounds" />
          </mxGeometry>
        </mxCell>
        <mxCell id="QGbw1XmalqU2caGTYsNW-71" style="shape=tableRow;horizontal=0;startSize=0;swimlaneHead=0;swimlaneBody=0;top=0;left=0;bottom=0;right=0;collapsible=0;dropTarget=0;fillColor=none;points=[[0,0.5],[1,0.5]];portConstraint=eastwest;strokeColor=inherit;fontSize=16;" parent="QGbw1XmalqU2caGTYsNW-16" vertex="1">
          <mxGeometry y="440" width="447.5" height="30" as="geometry" />
        </mxCell>
        <mxCell id="QGbw1XmalqU2caGTYsNW-72" style="shape=partialRectangle;html=1;whiteSpace=wrap;connectable=0;fillColor=none;top=0;left=0;bottom=0;right=0;overflow=hidden;strokeColor=inherit;fontSize=16;" parent="QGbw1XmalqU2caGTYsNW-71" vertex="1">
          <mxGeometry width="99" height="30" as="geometry">
            <mxRectangle width="99" height="30" as="alternateBounds" />
          </mxGeometry>
        </mxCell>
        <mxCell id="QGbw1XmalqU2caGTYsNW-73" value="probeQuencher" style="shape=partialRectangle;html=1;whiteSpace=wrap;connectable=0;fillColor=none;top=0;left=0;bottom=0;right=0;align=left;spacingLeft=6;overflow=hidden;strokeColor=inherit;fontSize=16;" parent="QGbw1XmalqU2caGTYsNW-71" vertex="1">
          <mxGeometry x="99" width="349" height="30" as="geometry">
            <mxRectangle width="349" height="30" as="alternateBounds" />
          </mxGeometry>
        </mxCell>
        <mxCell id="QGbw1XmalqU2caGTYsNW-74" style="shape=tableRow;horizontal=0;startSize=0;swimlaneHead=0;swimlaneBody=0;top=0;left=0;bottom=0;right=0;collapsible=0;dropTarget=0;fillColor=none;points=[[0,0.5],[1,0.5]];portConstraint=eastwest;strokeColor=inherit;fontSize=16;" parent="QGbw1XmalqU2caGTYsNW-16" vertex="1">
          <mxGeometry y="470" width="447.5" height="30" as="geometry" />
        </mxCell>
        <mxCell id="QGbw1XmalqU2caGTYsNW-75" style="shape=partialRectangle;html=1;whiteSpace=wrap;connectable=0;fillColor=none;top=0;left=0;bottom=0;right=0;overflow=hidden;strokeColor=inherit;fontSize=16;" parent="QGbw1XmalqU2caGTYsNW-74" vertex="1">
          <mxGeometry width="99" height="30" as="geometry">
            <mxRectangle width="99" height="30" as="alternateBounds" />
          </mxGeometry>
        </mxCell>
        <mxCell id="QGbw1XmalqU2caGTYsNW-76" value="ampliconSize" style="shape=partialRectangle;html=1;whiteSpace=wrap;connectable=0;fillColor=none;top=0;left=0;bottom=0;right=0;align=left;spacingLeft=6;overflow=hidden;strokeColor=inherit;fontSize=16;" parent="QGbw1XmalqU2caGTYsNW-74" vertex="1">
          <mxGeometry x="99" width="349" height="30" as="geometry">
            <mxRectangle width="349" height="30" as="alternateBounds" />
          </mxGeometry>
        </mxCell>
        <mxCell id="QGbw1XmalqU2caGTYsNW-77" style="shape=tableRow;horizontal=0;startSize=0;swimlaneHead=0;swimlaneBody=0;top=0;left=0;bottom=0;right=0;collapsible=0;dropTarget=0;fillColor=none;points=[[0,0.5],[1,0.5]];portConstraint=eastwest;strokeColor=inherit;fontSize=16;" parent="QGbw1XmalqU2caGTYsNW-16" vertex="1">
          <mxGeometry y="500" width="447.5" height="30" as="geometry" />
        </mxCell>
        <mxCell id="QGbw1XmalqU2caGTYsNW-78" style="shape=partialRectangle;html=1;whiteSpace=wrap;connectable=0;fillColor=none;top=0;left=0;bottom=0;right=0;overflow=hidden;strokeColor=inherit;fontSize=16;" parent="QGbw1XmalqU2caGTYsNW-77" vertex="1">
          <mxGeometry width="99" height="30" as="geometry">
            <mxRectangle width="99" height="30" as="alternateBounds" />
          </mxGeometry>
        </mxCell>
        <mxCell id="QGbw1XmalqU2caGTYsNW-79" value="thresholdQuantificationCycle" style="shape=partialRectangle;html=1;whiteSpace=wrap;connectable=0;fillColor=none;top=0;left=0;bottom=0;right=0;align=left;spacingLeft=6;overflow=hidden;strokeColor=inherit;fontSize=16;" parent="QGbw1XmalqU2caGTYsNW-77" vertex="1">
          <mxGeometry x="99" width="349" height="30" as="geometry">
            <mxRectangle width="349" height="30" as="alternateBounds" />
          </mxGeometry>
        </mxCell>
        <mxCell id="QGbw1XmalqU2caGTYsNW-80" style="shape=tableRow;horizontal=0;startSize=0;swimlaneHead=0;swimlaneBody=0;top=0;left=0;bottom=0;right=0;collapsible=0;dropTarget=0;fillColor=none;points=[[0,0.5],[1,0.5]];portConstraint=eastwest;strokeColor=inherit;fontSize=16;" parent="QGbw1XmalqU2caGTYsNW-16" vertex="1">
          <mxGeometry y="530" width="447.5" height="30" as="geometry" />
        </mxCell>
        <mxCell id="QGbw1XmalqU2caGTYsNW-81" style="shape=partialRectangle;html=1;whiteSpace=wrap;connectable=0;fillColor=none;top=0;left=0;bottom=0;right=0;overflow=hidden;strokeColor=inherit;fontSize=16;" parent="QGbw1XmalqU2caGTYsNW-80" vertex="1">
          <mxGeometry width="99" height="30" as="geometry">
            <mxRectangle width="99" height="30" as="alternateBounds" />
          </mxGeometry>
        </mxCell>
        <mxCell id="QGbw1XmalqU2caGTYsNW-82" value="baselineValue" style="shape=partialRectangle;html=1;whiteSpace=wrap;connectable=0;fillColor=none;top=0;left=0;bottom=0;right=0;align=left;spacingLeft=6;overflow=hidden;strokeColor=inherit;fontSize=16;" parent="QGbw1XmalqU2caGTYsNW-80" vertex="1">
          <mxGeometry x="99" width="349" height="30" as="geometry">
            <mxRectangle width="349" height="30" as="alternateBounds" />
          </mxGeometry>
        </mxCell>
        <mxCell id="QGbw1XmalqU2caGTYsNW-83" style="shape=tableRow;horizontal=0;startSize=0;swimlaneHead=0;swimlaneBody=0;top=0;left=0;bottom=0;right=0;collapsible=0;dropTarget=0;fillColor=none;points=[[0,0.5],[1,0.5]];portConstraint=eastwest;strokeColor=inherit;fontSize=16;" parent="QGbw1XmalqU2caGTYsNW-16" vertex="1">
          <mxGeometry y="560" width="447.5" height="30" as="geometry" />
        </mxCell>
        <mxCell id="QGbw1XmalqU2caGTYsNW-84" style="shape=partialRectangle;html=1;whiteSpace=wrap;connectable=0;fillColor=none;top=0;left=0;bottom=0;right=0;overflow=hidden;strokeColor=inherit;fontSize=16;" parent="QGbw1XmalqU2caGTYsNW-83" vertex="1">
          <mxGeometry width="99" height="30" as="geometry">
            <mxRectangle width="99" height="30" as="alternateBounds" />
          </mxGeometry>
        </mxCell>
        <mxCell id="QGbw1XmalqU2caGTYsNW-85" value="quantificationCycle" style="shape=partialRectangle;html=1;whiteSpace=wrap;connectable=0;fillColor=none;top=0;left=0;bottom=0;right=0;align=left;spacingLeft=6;overflow=hidden;strokeColor=inherit;fontSize=16;" parent="QGbw1XmalqU2caGTYsNW-83" vertex="1">
          <mxGeometry x="99" width="349" height="30" as="geometry">
            <mxRectangle width="349" height="30" as="alternateBounds" />
          </mxGeometry>
        </mxCell>
        <mxCell id="QGbw1XmalqU2caGTYsNW-86" style="shape=tableRow;horizontal=0;startSize=0;swimlaneHead=0;swimlaneBody=0;top=0;left=0;bottom=0;right=0;collapsible=0;dropTarget=0;fillColor=none;points=[[0,0.5],[1,0.5]];portConstraint=eastwest;strokeColor=inherit;fontSize=16;" parent="QGbw1XmalqU2caGTYsNW-16" vertex="1">
          <mxGeometry y="590" width="447.5" height="30" as="geometry" />
        </mxCell>
        <mxCell id="QGbw1XmalqU2caGTYsNW-87" style="shape=partialRectangle;html=1;whiteSpace=wrap;connectable=0;fillColor=none;top=0;left=0;bottom=0;right=0;overflow=hidden;strokeColor=inherit;fontSize=16;" parent="QGbw1XmalqU2caGTYsNW-86" vertex="1">
          <mxGeometry width="99" height="30" as="geometry">
            <mxRectangle width="99" height="30" as="alternateBounds" />
          </mxGeometry>
        </mxCell>
        <mxCell id="QGbw1XmalqU2caGTYsNW-88" value="automaticThresholdQuantificationCycle" style="shape=partialRectangle;html=1;whiteSpace=wrap;connectable=0;fillColor=none;top=0;left=0;bottom=0;right=0;align=left;spacingLeft=6;overflow=hidden;strokeColor=inherit;fontSize=16;" parent="QGbw1XmalqU2caGTYsNW-86" vertex="1">
          <mxGeometry x="99" width="349" height="30" as="geometry">
            <mxRectangle width="349" height="30" as="alternateBounds" />
          </mxGeometry>
        </mxCell>
        <mxCell id="QGbw1XmalqU2caGTYsNW-89" style="shape=tableRow;horizontal=0;startSize=0;swimlaneHead=0;swimlaneBody=0;top=0;left=0;bottom=0;right=0;collapsible=0;dropTarget=0;fillColor=none;points=[[0,0.5],[1,0.5]];portConstraint=eastwest;strokeColor=inherit;fontSize=16;" parent="QGbw1XmalqU2caGTYsNW-16" vertex="1">
          <mxGeometry y="620" width="447.5" height="30" as="geometry" />
        </mxCell>
        <mxCell id="QGbw1XmalqU2caGTYsNW-90" style="shape=partialRectangle;html=1;whiteSpace=wrap;connectable=0;fillColor=none;top=0;left=0;bottom=0;right=0;overflow=hidden;strokeColor=inherit;fontSize=16;" parent="QGbw1XmalqU2caGTYsNW-89" vertex="1">
          <mxGeometry width="99" height="30" as="geometry">
            <mxRectangle width="99" height="30" as="alternateBounds" />
          </mxGeometry>
        </mxCell>
        <mxCell id="QGbw1XmalqU2caGTYsNW-91" value="automaticBaselineValue" style="shape=partialRectangle;html=1;whiteSpace=wrap;connectable=0;fillColor=none;top=0;left=0;bottom=0;right=0;align=left;spacingLeft=6;overflow=hidden;strokeColor=inherit;fontSize=16;" parent="QGbw1XmalqU2caGTYsNW-89" vertex="1">
          <mxGeometry x="99" width="349" height="30" as="geometry">
            <mxRectangle width="349" height="30" as="alternateBounds" />
          </mxGeometry>
        </mxCell>
        <mxCell id="QGbw1XmalqU2caGTYsNW-92" style="shape=tableRow;horizontal=0;startSize=0;swimlaneHead=0;swimlaneBody=0;top=0;left=0;bottom=0;right=0;collapsible=0;dropTarget=0;fillColor=none;points=[[0,0.5],[1,0.5]];portConstraint=eastwest;strokeColor=inherit;fontSize=16;" parent="QGbw1XmalqU2caGTYsNW-16" vertex="1">
          <mxGeometry y="650" width="447.5" height="30" as="geometry" />
        </mxCell>
        <mxCell id="QGbw1XmalqU2caGTYsNW-93" style="shape=partialRectangle;html=1;whiteSpace=wrap;connectable=0;fillColor=none;top=0;left=0;bottom=0;right=0;overflow=hidden;strokeColor=inherit;fontSize=16;" parent="QGbw1XmalqU2caGTYsNW-92" vertex="1">
          <mxGeometry width="99" height="30" as="geometry">
            <mxRectangle width="99" height="30" as="alternateBounds" />
          </mxGeometry>
        </mxCell>
        <mxCell id="QGbw1XmalqU2caGTYsNW-94" value="contaminationAssessment" style="shape=partialRectangle;html=1;whiteSpace=wrap;connectable=0;fillColor=none;top=0;left=0;bottom=0;right=0;align=left;spacingLeft=6;overflow=hidden;strokeColor=inherit;fontSize=16;" parent="QGbw1XmalqU2caGTYsNW-92" vertex="1">
          <mxGeometry x="99" width="349" height="30" as="geometry">
            <mxRectangle width="349" height="30" as="alternateBounds" />
          </mxGeometry>
        </mxCell>
        <mxCell id="QGbw1XmalqU2caGTYsNW-95" style="shape=tableRow;horizontal=0;startSize=0;swimlaneHead=0;swimlaneBody=0;top=0;left=0;bottom=0;right=0;collapsible=0;dropTarget=0;fillColor=none;points=[[0,0.5],[1,0.5]];portConstraint=eastwest;strokeColor=inherit;fontSize=16;" parent="QGbw1XmalqU2caGTYsNW-16" vertex="1">
          <mxGeometry y="680" width="447.5" height="30" as="geometry" />
        </mxCell>
        <mxCell id="QGbw1XmalqU2caGTYsNW-96" style="shape=partialRectangle;html=1;whiteSpace=wrap;connectable=0;fillColor=none;top=0;left=0;bottom=0;right=0;overflow=hidden;strokeColor=inherit;fontSize=16;" parent="QGbw1XmalqU2caGTYsNW-95" vertex="1">
          <mxGeometry width="99" height="30" as="geometry">
            <mxRectangle width="99" height="30" as="alternateBounds" />
          </mxGeometry>
        </mxCell>
        <mxCell id="QGbw1XmalqU2caGTYsNW-97" value="estimatedNumberOfCopies" style="shape=partialRectangle;html=1;whiteSpace=wrap;connectable=0;fillColor=none;top=0;left=0;bottom=0;right=0;align=left;spacingLeft=6;overflow=hidden;strokeColor=inherit;fontSize=16;" parent="QGbw1XmalqU2caGTYsNW-95" vertex="1">
          <mxGeometry x="99" width="349" height="30" as="geometry">
            <mxRectangle width="349" height="30" as="alternateBounds" />
          </mxGeometry>
        </mxCell>
        <mxCell id="QGbw1XmalqU2caGTYsNW-98" style="shape=tableRow;horizontal=0;startSize=0;swimlaneHead=0;swimlaneBody=0;top=0;left=0;bottom=0;right=0;collapsible=0;dropTarget=0;fillColor=none;points=[[0,0.5],[1,0.5]];portConstraint=eastwest;strokeColor=inherit;fontSize=16;" parent="QGbw1XmalqU2caGTYsNW-16" vertex="1">
          <mxGeometry y="710" width="447.5" height="30" as="geometry" />
        </mxCell>
        <mxCell id="QGbw1XmalqU2caGTYsNW-99" style="shape=partialRectangle;html=1;whiteSpace=wrap;connectable=0;fillColor=none;top=0;left=0;bottom=0;right=0;overflow=hidden;strokeColor=inherit;fontSize=16;" parent="QGbw1XmalqU2caGTYsNW-98" vertex="1">
          <mxGeometry width="99" height="30" as="geometry">
            <mxRectangle width="99" height="30" as="alternateBounds" />
          </mxGeometry>
        </mxCell>
        <mxCell id="QGbw1XmalqU2caGTYsNW-100" value="amplificationReactionVolume" style="shape=partialRectangle;html=1;whiteSpace=wrap;connectable=0;fillColor=none;top=0;left=0;bottom=0;right=0;align=left;spacingLeft=6;overflow=hidden;strokeColor=inherit;fontSize=16;" parent="QGbw1XmalqU2caGTYsNW-98" vertex="1">
          <mxGeometry x="99" width="349" height="30" as="geometry">
            <mxRectangle width="349" height="30" as="alternateBounds" />
          </mxGeometry>
        </mxCell>
        <mxCell id="QGbw1XmalqU2caGTYsNW-101" style="shape=tableRow;horizontal=0;startSize=0;swimlaneHead=0;swimlaneBody=0;top=0;left=0;bottom=0;right=0;collapsible=0;dropTarget=0;fillColor=none;points=[[0,0.5],[1,0.5]];portConstraint=eastwest;strokeColor=inherit;fontSize=16;" parent="QGbw1XmalqU2caGTYsNW-16" vertex="1">
          <mxGeometry y="740" width="447.5" height="30" as="geometry" />
        </mxCell>
        <mxCell id="QGbw1XmalqU2caGTYsNW-102" style="shape=partialRectangle;html=1;whiteSpace=wrap;connectable=0;fillColor=none;top=0;left=0;bottom=0;right=0;overflow=hidden;strokeColor=inherit;fontSize=16;" parent="QGbw1XmalqU2caGTYsNW-101" vertex="1">
          <mxGeometry width="99" height="30" as="geometry">
            <mxRectangle width="99" height="30" as="alternateBounds" />
          </mxGeometry>
        </mxCell>
        <mxCell id="QGbw1XmalqU2caGTYsNW-103" value="amplificationReactionVolumeUnit" style="shape=partialRectangle;html=1;whiteSpace=wrap;connectable=0;fillColor=none;top=0;left=0;bottom=0;right=0;align=left;spacingLeft=6;overflow=hidden;strokeColor=inherit;fontSize=16;" parent="QGbw1XmalqU2caGTYsNW-101" vertex="1">
          <mxGeometry x="99" width="349" height="30" as="geometry">
            <mxRectangle width="349" height="30" as="alternateBounds" />
          </mxGeometry>
        </mxCell>
        <mxCell id="QGbw1XmalqU2caGTYsNW-104" style="shape=tableRow;horizontal=0;startSize=0;swimlaneHead=0;swimlaneBody=0;top=0;left=0;bottom=0;right=0;collapsible=0;dropTarget=0;fillColor=none;points=[[0,0.5],[1,0.5]];portConstraint=eastwest;strokeColor=inherit;fontSize=16;" parent="QGbw1XmalqU2caGTYsNW-16" vertex="1">
          <mxGeometry y="770" width="447.5" height="30" as="geometry" />
        </mxCell>
        <mxCell id="QGbw1XmalqU2caGTYsNW-105" style="shape=partialRectangle;html=1;whiteSpace=wrap;connectable=0;fillColor=none;top=0;left=0;bottom=0;right=0;overflow=hidden;strokeColor=inherit;fontSize=16;" parent="QGbw1XmalqU2caGTYsNW-104" vertex="1">
          <mxGeometry width="99" height="30" as="geometry">
            <mxRectangle width="99" height="30" as="alternateBounds" />
          </mxGeometry>
        </mxCell>
        <mxCell id="QGbw1XmalqU2caGTYsNW-106" value="pcr_analysis_software" style="shape=partialRectangle;html=1;whiteSpace=wrap;connectable=0;fillColor=none;top=0;left=0;bottom=0;right=0;align=left;spacingLeft=6;overflow=hidden;strokeColor=inherit;fontSize=16;" parent="QGbw1XmalqU2caGTYsNW-104" vertex="1">
          <mxGeometry x="99" width="349" height="30" as="geometry">
            <mxRectangle width="349" height="30" as="alternateBounds" />
          </mxGeometry>
        </mxCell>
        <mxCell id="QGbw1XmalqU2caGTYsNW-107" style="shape=tableRow;horizontal=0;startSize=0;swimlaneHead=0;swimlaneBody=0;top=0;left=0;bottom=0;right=0;collapsible=0;dropTarget=0;fillColor=none;points=[[0,0.5],[1,0.5]];portConstraint=eastwest;strokeColor=inherit;fontSize=16;" parent="QGbw1XmalqU2caGTYsNW-16" vertex="1">
          <mxGeometry y="800" width="447.5" height="30" as="geometry" />
        </mxCell>
        <mxCell id="QGbw1XmalqU2caGTYsNW-108" style="shape=partialRectangle;html=1;whiteSpace=wrap;connectable=0;fillColor=none;top=0;left=0;bottom=0;right=0;overflow=hidden;strokeColor=inherit;fontSize=16;" parent="QGbw1XmalqU2caGTYsNW-107" vertex="1">
          <mxGeometry width="99" height="30" as="geometry">
            <mxRectangle width="99" height="30" as="alternateBounds" />
          </mxGeometry>
        </mxCell>
        <mxCell id="QGbw1XmalqU2caGTYsNW-109" value="experimentalVariance" style="shape=partialRectangle;html=1;whiteSpace=wrap;connectable=0;fillColor=none;top=0;left=0;bottom=0;right=0;align=left;spacingLeft=6;overflow=hidden;strokeColor=inherit;fontSize=16;" parent="QGbw1XmalqU2caGTYsNW-107" vertex="1">
          <mxGeometry x="99" width="349" height="30" as="geometry">
            <mxRectangle width="349" height="30" as="alternateBounds" />
          </mxGeometry>
        </mxCell>
        <mxCell id="QGbw1XmalqU2caGTYsNW-110" style="shape=tableRow;horizontal=0;startSize=0;swimlaneHead=0;swimlaneBody=0;top=0;left=0;bottom=0;right=0;collapsible=0;dropTarget=0;fillColor=none;points=[[0,0.5],[1,0.5]];portConstraint=eastwest;strokeColor=inherit;fontSize=16;" parent="QGbw1XmalqU2caGTYsNW-16" vertex="1">
          <mxGeometry y="830" width="447.5" height="30" as="geometry" />
        </mxCell>
        <mxCell id="QGbw1XmalqU2caGTYsNW-111" style="shape=partialRectangle;html=1;whiteSpace=wrap;connectable=0;fillColor=none;top=0;left=0;bottom=0;right=0;overflow=hidden;strokeColor=inherit;fontSize=16;" parent="QGbw1XmalqU2caGTYsNW-110" vertex="1">
          <mxGeometry width="99" height="30" as="geometry">
            <mxRectangle width="99" height="30" as="alternateBounds" />
          </mxGeometry>
        </mxCell>
        <mxCell id="QGbw1XmalqU2caGTYsNW-112" value="concentration" style="shape=partialRectangle;html=1;whiteSpace=wrap;connectable=0;fillColor=none;top=0;left=0;bottom=0;right=0;align=left;spacingLeft=6;overflow=hidden;strokeColor=inherit;fontSize=16;" parent="QGbw1XmalqU2caGTYsNW-110" vertex="1">
          <mxGeometry x="99" width="349" height="30" as="geometry">
            <mxRectangle width="349" height="30" as="alternateBounds" />
          </mxGeometry>
        </mxCell>
        <mxCell id="QGbw1XmalqU2caGTYsNW-113" style="shape=tableRow;horizontal=0;startSize=0;swimlaneHead=0;swimlaneBody=0;top=0;left=0;bottom=0;right=0;collapsible=0;dropTarget=0;fillColor=none;points=[[0,0.5],[1,0.5]];portConstraint=eastwest;strokeColor=inherit;fontSize=16;" parent="QGbw1XmalqU2caGTYsNW-16" vertex="1">
          <mxGeometry y="860" width="447.5" height="30" as="geometry" />
        </mxCell>
        <mxCell id="QGbw1XmalqU2caGTYsNW-114" style="shape=partialRectangle;html=1;whiteSpace=wrap;connectable=0;fillColor=none;top=0;left=0;bottom=0;right=0;overflow=hidden;strokeColor=inherit;fontSize=16;" parent="QGbw1XmalqU2caGTYsNW-113" vertex="1">
          <mxGeometry width="99" height="30" as="geometry">
            <mxRectangle width="99" height="30" as="alternateBounds" />
          </mxGeometry>
        </mxCell>
        <mxCell id="QGbw1XmalqU2caGTYsNW-115" value="concentrationUnit" style="shape=partialRectangle;html=1;whiteSpace=wrap;connectable=0;fillColor=none;top=0;left=0;bottom=0;right=0;align=left;spacingLeft=6;overflow=hidden;strokeColor=inherit;fontSize=16;" parent="QGbw1XmalqU2caGTYsNW-113" vertex="1">
          <mxGeometry x="99" width="349" height="30" as="geometry">
            <mxRectangle width="349" height="30" as="alternateBounds" />
          </mxGeometry>
        </mxCell>
        <mxCell id="QGbw1XmalqU2caGTYsNW-116" style="shape=tableRow;horizontal=0;startSize=0;swimlaneHead=0;swimlaneBody=0;top=0;left=0;bottom=0;right=0;collapsible=0;dropTarget=0;fillColor=none;points=[[0,0.5],[1,0.5]];portConstraint=eastwest;strokeColor=inherit;fontSize=16;" parent="QGbw1XmalqU2caGTYsNW-16" vertex="1">
          <mxGeometry y="890" width="447.5" height="30" as="geometry" />
        </mxCell>
        <mxCell id="QGbw1XmalqU2caGTYsNW-117" style="shape=partialRectangle;html=1;whiteSpace=wrap;connectable=0;fillColor=none;top=0;left=0;bottom=0;right=0;overflow=hidden;strokeColor=inherit;fontSize=16;" parent="QGbw1XmalqU2caGTYsNW-116" vertex="1">
          <mxGeometry width="99" height="30" as="geometry">
            <mxRectangle width="99" height="30" as="alternateBounds" />
          </mxGeometry>
        </mxCell>
        <mxCell id="QGbw1XmalqU2caGTYsNW-118" value="methodDeterminationConcentrationAndRatios" style="shape=partialRectangle;html=1;whiteSpace=wrap;connectable=0;fillColor=none;top=0;left=0;bottom=0;right=0;align=left;spacingLeft=6;overflow=hidden;strokeColor=inherit;fontSize=16;" parent="QGbw1XmalqU2caGTYsNW-116" vertex="1">
          <mxGeometry x="99" width="349" height="30" as="geometry">
            <mxRectangle width="349" height="30" as="alternateBounds" />
          </mxGeometry>
        </mxCell>
        <mxCell id="QGbw1XmalqU2caGTYsNW-119" style="shape=tableRow;horizontal=0;startSize=0;swimlaneHead=0;swimlaneBody=0;top=0;left=0;bottom=0;right=0;collapsible=0;dropTarget=0;fillColor=none;points=[[0,0.5],[1,0.5]];portConstraint=eastwest;strokeColor=inherit;fontSize=16;" parent="QGbw1XmalqU2caGTYsNW-16" vertex="1">
          <mxGeometry y="920" width="447.5" height="30" as="geometry" />
        </mxCell>
        <mxCell id="QGbw1XmalqU2caGTYsNW-120" style="shape=partialRectangle;html=1;whiteSpace=wrap;connectable=0;fillColor=none;top=0;left=0;bottom=0;right=0;overflow=hidden;strokeColor=inherit;fontSize=16;" parent="QGbw1XmalqU2caGTYsNW-119" vertex="1">
          <mxGeometry width="99" height="30" as="geometry">
            <mxRectangle width="99" height="30" as="alternateBounds" />
          </mxGeometry>
        </mxCell>
        <mxCell id="QGbw1XmalqU2caGTYsNW-121" value="ratioOfAbsorbance260_230" style="shape=partialRectangle;html=1;whiteSpace=wrap;connectable=0;fillColor=none;top=0;left=0;bottom=0;right=0;align=left;spacingLeft=6;overflow=hidden;strokeColor=inherit;fontSize=16;" parent="QGbw1XmalqU2caGTYsNW-119" vertex="1">
          <mxGeometry x="99" width="349" height="30" as="geometry">
            <mxRectangle width="349" height="30" as="alternateBounds" />
          </mxGeometry>
        </mxCell>
        <mxCell id="QGbw1XmalqU2caGTYsNW-122" style="shape=tableRow;horizontal=0;startSize=0;swimlaneHead=0;swimlaneBody=0;top=0;left=0;bottom=0;right=0;collapsible=0;dropTarget=0;fillColor=none;points=[[0,0.5],[1,0.5]];portConstraint=eastwest;strokeColor=inherit;fontSize=16;" parent="QGbw1XmalqU2caGTYsNW-16" vertex="1">
          <mxGeometry y="950" width="447.5" height="30" as="geometry" />
        </mxCell>
        <mxCell id="QGbw1XmalqU2caGTYsNW-123" style="shape=partialRectangle;html=1;whiteSpace=wrap;connectable=0;fillColor=none;top=0;left=0;bottom=0;right=0;overflow=hidden;strokeColor=inherit;fontSize=16;" parent="QGbw1XmalqU2caGTYsNW-122" vertex="1">
          <mxGeometry width="99" height="30" as="geometry">
            <mxRectangle width="99" height="30" as="alternateBounds" />
          </mxGeometry>
        </mxCell>
        <mxCell id="QGbw1XmalqU2caGTYsNW-124" value="ratioOfAbsorbance260_280" style="shape=partialRectangle;html=1;whiteSpace=wrap;connectable=0;fillColor=none;top=0;left=0;bottom=0;right=0;align=left;spacingLeft=6;overflow=hidden;strokeColor=inherit;fontSize=16;" parent="QGbw1XmalqU2caGTYsNW-122" vertex="1">
          <mxGeometry x="99" width="349" height="30" as="geometry">
            <mxRectangle width="349" height="30" as="alternateBounds" />
          </mxGeometry>
        </mxCell>
        <mxCell id="QGbw1XmalqU2caGTYsNW-125" style="shape=tableRow;horizontal=0;startSize=0;swimlaneHead=0;swimlaneBody=0;top=0;left=0;bottom=0;right=0;collapsible=0;dropTarget=0;fillColor=none;points=[[0,0.5],[1,0.5]];portConstraint=eastwest;strokeColor=inherit;fontSize=16;" parent="QGbw1XmalqU2caGTYsNW-16" vertex="1">
          <mxGeometry y="980" width="447.5" height="30" as="geometry" />
        </mxCell>
        <mxCell id="QGbw1XmalqU2caGTYsNW-126" style="shape=partialRectangle;html=1;whiteSpace=wrap;connectable=0;fillColor=none;top=0;left=0;bottom=0;right=0;overflow=hidden;strokeColor=inherit;fontSize=16;" parent="QGbw1XmalqU2caGTYsNW-125" vertex="1">
          <mxGeometry width="99" height="30" as="geometry">
            <mxRectangle width="99" height="30" as="alternateBounds" />
          </mxGeometry>
        </mxCell>
        <mxCell id="QGbw1XmalqU2caGTYsNW-127" value="pcr_primer_lod" style="shape=partialRectangle;html=1;whiteSpace=wrap;connectable=0;fillColor=none;top=0;left=0;bottom=0;right=0;align=left;spacingLeft=6;overflow=hidden;strokeColor=inherit;fontSize=16;" parent="QGbw1XmalqU2caGTYsNW-125" vertex="1">
          <mxGeometry x="99" width="349" height="30" as="geometry">
            <mxRectangle width="349" height="30" as="alternateBounds" />
          </mxGeometry>
        </mxCell>
        <mxCell id="QGbw1XmalqU2caGTYsNW-128" style="shape=tableRow;horizontal=0;startSize=0;swimlaneHead=0;swimlaneBody=0;top=0;left=0;bottom=0;right=0;collapsible=0;dropTarget=0;fillColor=none;points=[[0,0.5],[1,0.5]];portConstraint=eastwest;strokeColor=inherit;fontSize=16;" parent="QGbw1XmalqU2caGTYsNW-16" vertex="1">
          <mxGeometry y="1010" width="447.5" height="30" as="geometry" />
        </mxCell>
        <mxCell id="QGbw1XmalqU2caGTYsNW-129" style="shape=partialRectangle;html=1;whiteSpace=wrap;connectable=0;fillColor=none;top=0;left=0;bottom=0;right=0;overflow=hidden;strokeColor=inherit;fontSize=16;" parent="QGbw1XmalqU2caGTYsNW-128" vertex="1">
          <mxGeometry width="99" height="30" as="geometry">
            <mxRectangle width="99" height="30" as="alternateBounds" />
          </mxGeometry>
        </mxCell>
        <mxCell id="QGbw1XmalqU2caGTYsNW-130" value="pcr_primer_loq" style="shape=partialRectangle;html=1;whiteSpace=wrap;connectable=0;fillColor=none;top=0;left=0;bottom=0;right=0;align=left;spacingLeft=6;overflow=hidden;strokeColor=inherit;fontSize=16;" parent="QGbw1XmalqU2caGTYsNW-128" vertex="1">
          <mxGeometry x="99" width="349" height="30" as="geometry">
            <mxRectangle width="349" height="30" as="alternateBounds" />
          </mxGeometry>
        </mxCell>
        <mxCell id="9F0vchl4Z2Q72RuIH1m0-26" value="many" style="edgeLabel;html=1;align=center;verticalAlign=middle;resizable=0;points=[];" parent="1" vertex="1" connectable="0">
          <mxGeometry x="-130.0010526315792" y="226.0526315789475" as="geometry">
            <mxPoint x="-47" y="-302" as="offset" />
          </mxGeometry>
        </mxCell>
        <mxCell id="9F0vchl4Z2Q72RuIH1m0-27" value="one" style="edgeLabel;html=1;align=center;verticalAlign=middle;resizable=0;points=[];" parent="1" vertex="1" connectable="0">
          <mxGeometry x="-19.99945935851607" y="195.00060943110063" as="geometry">
            <mxPoint x="55" y="-32" as="offset" />
          </mxGeometry>
        </mxCell>
        <mxCell id="9F0vchl4Z2Q72RuIH1m0-31" value="" style="endArrow=classic;startArrow=classic;html=1;rounded=0;edgeStyle=orthogonalEdgeStyle;exitX=1;exitY=0.5;exitDx=0;exitDy=0;" parent="1" source="qUH4pPLVqTFTwaiTXcvp-59" target="qUH4pPLVqTFTwaiTXcvp-37" edge="1">
          <mxGeometry width="50" height="50" relative="1" as="geometry">
            <mxPoint x="570" y="290" as="sourcePoint" />
            <mxPoint x="620" y="240" as="targetPoint" />
            <Array as="points">
              <mxPoint x="800" y="55" />
              <mxPoint x="800" y="-105" />
            </Array>
          </mxGeometry>
        </mxCell>
        <mxCell id="9F0vchl4Z2Q72RuIH1m0-32" value="one" style="edgeLabel;html=1;align=center;verticalAlign=middle;resizable=0;points=[];" parent="1" vertex="1" connectable="0">
          <mxGeometry x="570.0005047264917" y="54.996126421476674" as="geometry">
            <mxPoint x="234" y="-72" as="offset" />
          </mxGeometry>
        </mxCell>
        <mxCell id="9F0vchl4Z2Q72RuIH1m0-33" value="many" style="edgeLabel;html=1;align=center;verticalAlign=middle;resizable=0;points=[];" parent="1" vertex="1" connectable="0">
          <mxGeometry x="550.0028957205238" y="209.9959890705424" as="geometry">
            <mxPoint y="-315" as="offset" />
          </mxGeometry>
        </mxCell>
        <mxCell id="9F0vchl4Z2Q72RuIH1m0-34" value="" style="endArrow=classic;startArrow=classic;html=1;rounded=0;exitX=1;exitY=0.5;exitDx=0;exitDy=0;edgeStyle=orthogonalEdgeStyle;" parent="1" source="qUH4pPLVqTFTwaiTXcvp-47" target="QGbw1XmalqU2caGTYsNW-17" edge="1">
          <mxGeometry width="50" height="50" relative="1" as="geometry">
            <mxPoint x="500" y="300" as="sourcePoint" />
            <mxPoint x="550" y="250" as="targetPoint" />
          </mxGeometry>
        </mxCell>
        <mxCell id="9F0vchl4Z2Q72RuIH1m0-35" value="one" style="edgeLabel;html=1;align=center;verticalAlign=middle;resizable=0;points=[];" parent="1" vertex="1" connectable="0">
          <mxGeometry x="559.9999997041418" y="54.99615384619892" as="geometry">
            <mxPoint x="-40" y="259" as="offset" />
          </mxGeometry>
        </mxCell>
        <mxCell id="9F0vchl4Z2Q72RuIH1m0-36" value="many" style="edgeLabel;html=1;align=center;verticalAlign=middle;resizable=0;points=[];" parent="1" vertex="1" connectable="0">
          <mxGeometry x="480.5" y="180" as="geometry">
            <mxPoint x="-22" y="11" as="offset" />
          </mxGeometry>
        </mxCell>
      </root>
    </mxGraphModel>
  </diagram>
</mxfile>
